<svg width="234" height="124" viewBox="0 0 234 124" fill="none" xmlns="http://www.w3.org/2000/svg">
<path d="M149.611 10.4444C149.597 10.2639 149.583 10.0833 149.569 9.90278C149.569 9.27778 149.778 8.70833 150 8H0V124H13.6275V67.2222H66.6651C66.8874 66.4167 67.1235 65.6389 67.5403 64.7778H13.6275V10.4444H149.611Z" fill="white"/>
<path d="M149 58.281C149 65.3718 143.785 71.0444 137.778 74.7344C129.796 79.6222 117.322 84.4136 107.421 91.1189C92.8332 100.991 87.5072 110.257 106.684 118.518C118.504 123.613 133.328 121.258 146.455 108.082L148.11 109.472C119.936 138.551 71.2092 121.478 71.0006 80.4208C70.7503 24.4931 149.014 26.4482 149 58.281ZM84.8372 79.7048C84.6703 89.8109 87.4098 98.9945 91.8181 105.851C92.1657 95.4009 112.928 85.5151 123.955 77.1576C131.353 71.5401 134.635 64.4355 134.691 57.8955C134.899 27.5359 85.6716 30.978 84.8372 79.7048Z" fill="white"/>
<path d="M234 58.281C234 65.3718 228.786 71.0444 222.78 74.7344C214.799 79.6222 202.328 84.4136 192.414 91.1189C177.829 100.991 172.504 110.257 191.677 118.518C203.495 123.613 218.317 121.258 231.442 108.082L233.096 109.472C204.928 138.551 156.209 121.478 156.001 80.4208C155.75 24.4931 234 26.4482 233.986 58.281M169.849 79.7048C169.682 89.8109 172.421 98.9945 176.828 105.851C177.176 95.4009 197.934 85.5151 208.96 77.1576C216.356 71.5401 219.638 64.4355 219.693 57.8955C219.902 27.5359 170.683 30.978 169.849 79.7048Z" fill="white"/>
<path d="M233.583 3.26761C233.305 2.61972 232.916 2.05634 232.43 1.56338C231.943 1.08451 231.374 0.704225 230.721 0.422535C230.068 0.140845 229.373 0 228.622 0C228.122 0 227.636 0.0704227 227.191 0.197183C226.733 0.323944 226.302 0.507042 225.899 0.746479C225.496 0.971831 225.148 1.25352 224.815 1.59155C224.481 1.91549 224.204 2.28169 223.981 2.67606C223.745 3.07042 223.564 3.50704 223.439 3.95775C223.314 4.40845 223.245 4.88732 223.245 5.38028C223.245 5.92958 223.314 6.4507 223.467 6.92958C223.62 7.42254 223.828 7.87324 224.106 8.29577H164.105L163.271 7.05634C162.882 6.3662 162.409 5.87324 161.881 5.57747C161.339 5.26761 160.797 5.11268 160.242 5.11268C159.825 5.11268 159.408 5.19718 159.033 5.3662C158.644 5.53521 158.31 5.76056 158.018 6.05634C157.726 6.35211 157.49 6.69014 157.31 7.09859C157.143 7.49296 157.06 7.92958 157.06 8.40845C157.06 8.76056 157.115 9.09859 157.212 9.40845C157.31 9.71831 157.462 10.0704 157.643 10.4507C157.935 10.9577 158.227 11.4507 158.532 11.9437C158.838 12.4366 158.63 12.0423 158.935 12.5493H154.392C153.655 12.5493 153.058 12.4366 152.585 12.2113C152.585 12.2113 152.502 12.169 152.46 12.1408C151.668 11.6479 151.473 10.8451 151.432 10.338V8.70423C151.432 8.46479 151.237 8.25352 150.987 8.25352H149.431C149.208 8.97183 149 9.5493 149 10.1831C149 10.3662 149.014 10.5493 149.042 10.7324C149.056 10.9577 149.097 11.169 149.139 11.3803C149.222 11.7746 149.347 12.1268 149.528 12.4648C149.709 12.7887 149.931 13.0986 150.209 13.4085C150.487 13.7042 150.793 13.9718 151.126 14.1831C151.543 14.4225 152.043 14.6197 152.599 14.7746C153.169 14.9296 153.752 15 154.392 15H161.048C161.214 15 161.381 14.9718 161.52 14.9014C161.673 14.831 161.784 14.7324 161.895 14.6197C161.992 14.507 162.076 14.3803 162.145 14.2254C162.201 14.0845 162.229 13.9296 162.229 13.7746C162.229 13.6761 162.215 13.5775 162.187 13.4648C162.159 13.3521 162.118 13.2535 162.076 13.169C161.603 12.3521 161.631 12.4366 161.145 11.6338C160.658 10.8451 160.186 10.0423 159.727 9.21127C159.63 9.05634 159.575 8.90141 159.533 8.77465C159.491 8.6338 159.477 8.50704 159.477 8.39437C159.477 8.14084 159.547 7.94366 159.7 7.78873C159.853 7.6338 160.033 7.56338 160.242 7.56338C160.394 7.56338 160.561 7.61972 160.728 7.73239C160.909 7.84507 161.061 8.02817 161.2 8.28169L162.354 10.0986C162.465 10.2817 162.604 10.4366 162.798 10.5634C162.979 10.6761 163.188 10.7465 163.424 10.7465H165.036H165.119H228.622C229.373 10.7465 230.068 10.6056 230.721 10.3239C231.374 10.0423 231.943 9.66197 232.43 9.16901C232.916 8.67606 233.305 8.11268 233.583 7.46479C233.861 6.8169 234 6.11268 234 5.38028C234 4.64789 233.861 3.92958 233.583 3.28169M231.388 6.50704C231.235 6.85915 231.012 7.16901 230.748 7.43662C230.484 7.70423 230.151 7.90141 229.803 8.05634C229.442 8.21127 229.053 8.28169 228.636 8.28169C228.219 8.28169 227.83 8.21127 227.483 8.05634C227.122 7.90141 226.816 7.69014 226.538 7.43662C226.274 7.16901 226.066 6.85915 225.899 6.50704C225.746 6.15493 225.663 5.77465 225.663 5.3662C225.663 4.95775 225.746 4.57747 225.899 4.22535C226.052 3.85915 226.26 3.5493 226.538 3.28169C226.816 3.01408 227.122 2.80282 227.483 2.64789C227.844 2.49296 228.233 2.42254 228.636 2.42254C229.039 2.42254 229.442 2.49296 229.803 2.64789C230.165 2.80282 230.484 3.01408 230.748 3.28169C231.026 3.5493 231.235 3.85915 231.388 4.22535C231.54 4.57747 231.624 4.95775 231.624 5.3662C231.624 5.77465 231.554 6.15493 231.388 6.50704Z" fill="white"/>
</svg>
