<svg width="375" height="272" viewBox="0 0 375 272" fill="none" xmlns="http://www.w3.org/2000/svg">
<path d="M289.315 225.646C290.407 224.031 290.51 222.2 290.595 220.332C291.235 207.009 290.83 193.677 291.169 180.354C291.404 170.824 291.376 161.285 291.649 151.765C292.044 138.019 291.856 124.264 292.176 110.528C292.486 97.3745 292.571 84.2206 292.618 71.0573C292.655 62.4571 292.608 53.8474 292.9 45.2566C293.305 33.7833 292.957 22.3194 293.107 10.8461C293.145 7.75719 291.752 5.5414 289.061 4.00162C285.523 1.97361 281.815 1.51355 277.892 2.49939C267.833 5.02501 257.708 7.30652 247.734 10.1608C238.794 12.7145 229.827 15.2026 221.085 18.423C218.827 19.2492 216.55 20.0567 214.235 20.6857C210.659 21.6528 209.511 24.1221 209.398 27.5397C209.125 36.3089 208.862 45.0782 208.89 53.8568C208.966 75.5265 208.89 97.2055 208.937 118.875C208.937 121.326 209.257 123.767 209.427 126.208" stroke="black" stroke-width="3" stroke-linecap="round" stroke-linejoin="round"/>
<path d="M282.22 214.004C283.462 213.252 283.979 212.295 284.045 210.717C285.071 188.466 284.685 166.186 285.099 143.925C285.701 112.124 285.485 80.3335 285.419 48.5426C285.391 37.8392 285.015 27.1264 285.015 16.4137C285.015 14.6204 284.506 12.9022 284.422 11.1089C284.318 9.0058 282.512 7.96363 279.943 8.34857C276.292 8.90252 272.65 9.58791 269.037 10.3578C261.754 11.907 254.48 13.4937 247.235 15.1649C243.32 16.0663 239.425 17.0615 235.576 18.2069C229.714 19.9533 223.739 21.3804 218.083 23.7652C213.36 25.7556 213.849 25.3707 213.407 29.5582C212.136 41.6135 212.861 53.6971 212.193 65.7431C212.07 68.0246 212.005 70.2967 211.995 72.5782C211.892 89.6942 211.826 106.82 211.732 123.936C211.713 126.743 209.963 128.499 207.168 128.48C206.067 128.48 204.938 128.705 203.875 128.245C203.875 124.781 203.875 121.326 203.875 117.87C203.865 111.542 204.035 105.205 203.376 98.8954C203.225 97.4589 202.708 96.5388 201.108 96.0693C195.613 94.4638 189.948 93.7033 184.378 92.4921C180.077 91.5532 175.721 90.8585 171.402 90.22C167.581 89.6567 163.695 88.9901 159.762 88.9713C158.247 88.9713 157.654 89.6191 157.231 90.8021C156.337 93.262 156.544 95.8815 156.318 98.3978C155.829 103.768 155.857 109.186 155.716 114.584C155.433 125.128 155.029 135.662 155.208 146.206C155.226 147.051 155.048 147.924 155.462 148.732" stroke="black" stroke-width="3" stroke-linecap="round" stroke-linejoin="round"/>
<path d="M66.9448 259.296C65.938 259.934 64.837 260.075 63.6514 260.075C9.38563 260.056 -44.8707 260.094 -99.1365 260C-104.538 259.991 -109.958 259.822 -115.368 259.812C-142.242 259.794 -169.126 259.812 -196 259.812" stroke="black" stroke-width="3" stroke-linecap="round" stroke-linejoin="round"/>
<path d="M209.191 141.643C206.095 145.286 207.582 149.746 207.328 153.802C207.121 157.116 207.328 160.543 207.403 163.914C207.723 178.42 208.363 192.916 208.514 207.432C208.57 212.99 208.946 218.557 208.937 224.134C208.937 226.622 209.793 227.759 212.23 228.425C216.211 229.524 220.332 229.974 224.407 230.125C232.932 230.453 241.485 230.603 250.01 230.387C257.952 230.181 265.941 230.641 273.836 229.627C277.637 229.139 281.552 229.486 285.269 228.2C286.435 227.796 287.64 227.552 288.553 226.651" stroke="black" stroke-width="3" stroke-linecap="round" stroke-linejoin="round"/>
<path d="M106.494 123.175C106.513 127.532 106.127 131.926 107.971 136.094C108.206 136.63 108.667 137.052 108.752 137.597C108.931 138.676 110.408 139.634 108.856 140.977C108.394 141.371 108.79 142.892 108.987 143.925C110.126 149.699 110.982 155.511 111.584 161.369C112.045 165.857 112.826 170.298 113.306 174.786C113.607 177.65 113.946 180.504 114.181 183.377C114.464 186.673 114.671 189.959 114.586 193.254C114.379 200.69 113.956 208.117 113.184 215.534C112.742 219.816 112.478 224.134 112.036 228.425C111.236 236.133 110.455 243.861 108.799 251.456C108.46 252.996 107.962 254.273 106.484 254.996" stroke="black" stroke-width="3" stroke-linecap="round" stroke-linejoin="round"/>
<path d="M211.224 142.15C211.308 145.099 211.562 148.056 211.449 151.004C210.828 167.782 210.922 184.57 211.026 201.357C211.054 205.319 211.346 209.3 211.91 213.262C212.174 215.112 213.011 215.271 214.508 215.591C218.384 216.398 222.299 215.985 226.185 216.21C232.424 216.576 238.709 217.046 244.939 216.238C248.59 215.769 252.203 215.938 255.844 215.966C262.77 216.022 269.714 215.797 276.63 215.44C278.127 215.365 279.66 215.037 281.204 215.018" stroke="black" stroke-width="3" stroke-linecap="round" stroke-linejoin="round"/>
<path d="M80.6359 148.985C80.9088 158.187 80.0619 167.359 79.996 176.561C79.9584 181.264 79.996 186.072 79.2621 190.71C78.2741 196.944 78.3493 203.197 77.9824 209.441C77.7565 213.271 76.5521 217.074 75.5264 220.82C73.4281 228.519 71.1697 236.18 68.9584 243.851C68.4691 245.541 67.9987 247.241 67.4247 248.902C66.7472 250.865 66.3238 252.921 67.5094 254.677C68.2998 255.841 67.9516 256.967 67.6034 257.719C66.6625 259.718 67.4811 260.657 69.2219 261.023C75.4417 262.31 81.7086 262.657 87.9755 261.286C88.1731 261.239 88.3142 260.967 88.7377 260.545C86.517 258.301 83.4871 257.484 80.89 255.972C78.0482 254.32 75.2347 253.127 71.9978 254.958C70.7369 255.672 69.3066 255.184 67.9516 255.23" stroke="black" stroke-width="3" stroke-linecap="round" stroke-linejoin="round"/>
<path d="M96.8584 182.382C96.0116 183.602 95.9551 184.983 95.7952 186.428C95.1553 192.259 94.5907 198.118 93.5086 203.882C90.8268 218.294 86.0185 232.115 81.069 245.87C80.0715 248.639 78.773 251.409 76.8252 253.738" stroke="black" stroke-width="3" stroke-linecap="round" stroke-linejoin="round"/>
<path d="M97.8744 182.635C98.8248 184.992 98.8813 187.555 99.2765 189.996C99.9634 194.231 100.66 198.521 100.434 202.878C99.9258 212.652 100.076 222.444 99.8128 232.218C99.6623 238.039 99.3988 243.851 99.3988 249.682C99.3988 252.705 100.302 253.681 103.191 254.77C108.3 256.695 113.391 258.686 118.388 260.873C119.818 261.502 121.982 262.31 121.606 264.328C121.22 266.422 118.83 265.69 117.371 266.018C115.602 266.422 113.664 266.244 111.82 266.084C107.839 265.746 103.831 265.633 99.8975 264.845C97.5075 264.366 96.3877 263.155 96.3595 260.798C96.3218 257.812 96.9523 255.052 99.6435 253.212" stroke="black" stroke-width="3" stroke-linecap="round" stroke-linejoin="round"/>
<path d="M79.8736 94.8396C79.0455 95.14 78.6786 95.7222 78.5939 96.6047C78.2363 100.229 77.6623 103.825 77.5682 107.486C77.4741 111.298 76.9378 115.082 76.6743 118.875C76.392 122.903 76.2791 126.968 76.0815 131.015C75.8651 135.484 75.8086 139.963 75.5263 144.423C75.3946 146.516 76.1474 147.812 78.0952 148.469" stroke="black" stroke-width="3" stroke-linecap="round" stroke-linejoin="round"/>
<path d="M237.844 129.503C235.67 129.823 233.958 131.184 232.019 132.048C229.347 133.231 226.637 134.142 223.645 134.076C220.267 134.001 216.813 134.489 213.52 133.944C209.878 133.343 206.218 133.897 202.576 133.137C199.904 132.574 198.276 131.175 197.015 128.996C195.952 127.147 194.531 125.579 192.922 124.236C192.31 123.729 191.492 122.734 190.419 123.917C191.256 125.71 192.423 127.597 192.96 129.757" stroke="black" stroke-width="3" stroke-linecap="round" stroke-linejoin="round"/>
<path d="M272.331 125.203C272.999 126.039 272.848 127.034 272.829 127.982C272.735 133.381 272.82 138.78 272.641 144.178C272.359 152.938 273.544 161.529 276.885 169.735C277.638 171.594 277.826 177.95 277.976 180.1C278.428 186.269 276.565 192.4 277.854 198.587C278.212 200.287 277.892 202.117 277.911 203.892C277.911 204.512 277.656 205.235 278.409 205.666" stroke="black" stroke-width="3" stroke-linecap="round" stroke-linejoin="round"/>
<path d="M79.6199 197.564C80.2221 199.47 81.3606 200.906 83.1579 201.883C84.654 202.699 86.0184 203.732 86.6583 205.61C86.2443 206.915 85.181 207.769 83.6848 208.192C80.2221 209.159 79.9021 212.464 79.2152 215.046C76.4488 225.355 74.0023 235.758 71.5652 246.151C71.2076 247.672 71.5087 249.344 71.5181 250.949C71.5181 251.935 72.5814 252.264 73.0613 252.367C74.0023 252.583 74.5763 253.005 75.0656 253.728" stroke="black" stroke-width="3" stroke-linecap="round" stroke-linejoin="round"/>
<path d="M86.7239 62.7106C91.504 61.077 96.1336 58.7955 101.187 58.2603C104.01 57.9599 107.162 57.9035 109.524 60.1944C110.267 60.9174 111.057 61.3305 112.074 61.1803C114.642 60.8047 117.174 60.2977 119.498 59.0302C119.046 56.2605 116.788 56.129 114.859 55.6502C113.965 55.4248 112.977 55.5563 112.083 55.3403C111.528 55.1995 110.747 55.0587 110.568 54.3639C109.589 50.5332 106.447 49.1718 103.181 48.355C98.3731 47.1532 93.7906 47.8949 89.7538 51.0684C86.3475 53.7348 84.522 57.6782 85.4912 61.3774C86.2911 64.41 85.8017 67.4145 86.6862 70.3157C87.1944 71.9963 87.8907 73.5079 88.9916 74.8693C91.1371 77.517 92.4168 80.3524 90.5254 83.7137" stroke="black" stroke-width="3" stroke-linecap="round" stroke-linejoin="round"/>
<path d="M108.526 142.911C104.517 145.549 100.038 146.826 95.343 147.455C91.9649 147.906 88.5868 148.403 85.1993 148.685C83.148 148.854 80.9932 149.155 79.1583 147.831C77.8409 148.159 77.6716 149.286 77.6245 150.244C77.2011 159.013 76.6459 167.763 77.521 176.561C77.9539 180.908 77.5869 185.321 77.6057 189.705C77.6057 190.654 77.314 191.677 78.1044 192.484" stroke="black" stroke-width="3" stroke-linecap="round" stroke-linejoin="round"/>
<path d="M154.418 89.7788C148.913 91.2529 143.465 92.8959 138.158 95.0178C136.925 95.506 135.391 95.1493 134.102 96.0694C132.898 96.9426 132.305 97.8721 132.324 99.3931C132.371 104.238 132.07 109.007 131.354 113.852C130.884 117.054 131.778 120.715 131.853 124.189C131.985 130.095 132.173 136 132.361 141.897C132.408 143.343 132.691 144.798 132.954 146.178C133.443 148.732 136.059 148.891 137.932 148.891C145.535 148.863 153.147 149.38 160.76 148.788C164.787 148.469 168.871 148.741 172.927 148.722C173.519 148.722 174.112 148.563 174.705 148.478" stroke="black" stroke-width="3" stroke-linecap="round" stroke-linejoin="round"/>
<path d="M276.894 111.035C276.781 110.378 276.348 109.937 275.878 109.524C274.514 108.322 274.316 106.942 274.834 105.214C276.273 100.435 277.995 95.6752 278.757 90.7742C279.209 87.8824 279.661 84.6807 277.967 81.6575C275.944 78.0428 273.893 76.8222 269.781 77.0663C267.692 77.1884 265.556 76.6438 263.448 77.1414C262.968 77.2541 262.591 76.9818 262.45 76.625C261.077 73.1605 257.915 73.3389 255.073 73.123C248.618 72.6254 242.737 74.6064 237.355 77.9489C233.657 80.2398 234.372 84.5305 238.597 86.7557" stroke="black" stroke-width="3" stroke-linecap="round" stroke-linejoin="round"/>
<path d="M253.313 160.618C257.143 162.139 261.208 162.628 265.235 163.069C267.315 163.294 268.867 164.083 270.373 165.472C268.679 168.561 265.452 168.364 262.685 168.928C258.178 169.848 253.539 170.223 249.267 172.026C243.762 174.345 242.492 176.852 242.464 182.128C242.426 189.884 242.727 197.648 242.934 205.404C243.01 208.333 242.539 211.178 241.843 214.023C243.433 215.375 245.917 213.412 247.235 215.525" stroke="black" stroke-width="3" stroke-linecap="round" stroke-linejoin="round"/>
<path d="M81.3981 97.3746C83.3553 98.0506 83.026 100.107 83.5717 101.468C85.1431 105.365 86.9028 109.186 88.4271 113.092C89.3493 115.448 91.2595 115.533 92.765 114.988C96.0396 113.796 99.0319 111.843 100.829 108.716C101.262 107.965 101.121 106.585 100.688 105.468C98.8813 100.811 97.1217 96.1352 95.2398 91.4971C94.4305 89.4973 93.3955 87.7321 92.2569 86.0234C89.7539 82.249 86.4887 81.8547 83.2236 85.0281C81.351 86.8496 79.8925 88.8964 80.1842 92.0792C80.3442 93.8443 81.1534 95.5907 80.9747 97.1023C80.7206 99.2054 81.2287 101.196 81.0876 103.186C80.5606 110.585 84.1457 116.312 88.239 121.927C90.9019 125.579 94.4494 128.508 96.6512 132.414C96.3501 133.7 95.4468 133.541 94.5905 133.559C91.6359 133.625 88.6718 133.719 85.7171 133.813C84.9644 133.841 84.0516 133.466 83.7317 135.137C86.5546 137.954 90.9395 137.475 94.5905 138.864" stroke="black" stroke-width="3" stroke-linecap="round" stroke-linejoin="round"/>
<path d="M243.424 141.146C242.643 142.056 242.483 143.042 242.906 144.188C244.506 148.516 245.372 152.995 244.901 157.586C244.515 161.313 243.744 165.012 243.179 168.721C242.953 170.233 242.812 171.754 242.671 173.275C242.577 174.298 242.906 175.124 243.932 175.547" stroke="black" stroke-width="3" stroke-linecap="round" stroke-linejoin="round"/>
<path d="M244.694 175.547C247.48 176.542 250.453 176.983 253.314 176.974C260.672 176.936 268.021 177.753 275.379 177.086C276.885 176.946 278.419 177.068 279.943 177.068C281.863 178.974 280.639 181.283 280.658 183.396C280.724 189.724 279.482 196.014 280.169 202.371C280.489 205.328 280.329 205.507 278.927 206.539" stroke="black" stroke-width="3" stroke-linecap="round" stroke-linejoin="round"/>
<path d="M192.207 129.25C189.723 129.156 187.436 127.879 184.849 128.198C182.458 128.489 179.843 127.691 178.017 130.02C178.902 132.329 181.216 132.733 183.108 133.503C188.594 135.738 194.239 137.446 200.064 138.686C204.317 139.596 208.41 141.268 212.758 141.906C216.729 142.488 220.69 143.418 224.68 143.596C230.363 143.85 235.736 142.169 240.902 139.878" stroke="black" stroke-width="3" stroke-linecap="round" stroke-linejoin="round"/>
<path d="M259.147 101.421C259.147 97.3652 260.258 93.3467 259.637 89.2813C259.279 86.9341 257.868 85.1126 255.835 83.9953C251.996 81.8734 247.79 81.066 243.433 81.4603C240.77 81.7044 238.126 84.8873 238.691 87.488C239.246 90.0418 238.258 92.3796 238.22 94.8395C238.145 99.9377 238.465 104.839 241.683 108.979C244.656 112.81 249.295 112.369 252.532 108.989C253.567 107.909 254.405 106.641 255.336 105.458" stroke="black" stroke-width="3" stroke-linecap="round" stroke-linejoin="round"/>
<path d="M202.096 144.178C203.197 147.145 202.068 148.732 199.057 149.023C191.623 149.727 184.171 148.816 176.737 149.492C176.097 149.549 175.627 149.183 175.213 148.741" stroke="black" stroke-width="3" stroke-linecap="round" stroke-linejoin="round"/>
<path d="M265.48 133.55C267.033 139.906 267.607 146.441 269.187 152.797C269.601 154.45 269.507 156.328 269.79 158.083C270.157 160.384 269.056 161.933 267.249 163.144" stroke="black" stroke-width="3" stroke-linecap="round" stroke-linejoin="round"/>
<path d="M265.48 113.054C261.886 114.171 258.395 115.504 255.045 117.279C253.84 117.917 253.003 118.903 252.118 119.711C248.75 122.771 244.459 124.058 240.61 126.17C238.691 127.222 236.385 126.94 234.268 127.372C227.173 128.799 219.937 128.527 212.739 128.48C211.873 128.48 210.932 128.715 210.208 127.982" stroke="black" stroke-width="3" stroke-linecap="round" stroke-linejoin="round"/>
<path d="M108.526 140.892C104.903 140.141 101.403 141.136 97.8838 141.681C93.0472 142.423 88.2483 143.361 83.4211 144.169C82.5742 144.31 81.8403 143.85 81.144 143.418C81.1063 143.39 81.1063 143.239 81.144 143.174C81.2004 143.07 81.3039 143.005 81.3886 142.92" stroke="black" stroke-width="3" stroke-linecap="round" stroke-linejoin="round"/>
<path d="M104.725 89.2717C107.425 90.3984 107.924 93.1118 109.006 95.3557C110.474 98.4165 111.726 101.59 113.1 104.698C113.749 106.153 114.633 107.467 115.847 108.228C116.214 111.092 113.749 112.153 112.789 114.04C112.497 114.603 111.697 114.368 111.048 114.087C109.9 113.58 108.677 113.251 107.51 112.791C106.644 112.444 105.901 111.899 104.941 112.772C103.982 113.655 104.988 114.368 105.054 115.063C105.308 117.514 106.315 119.87 106.212 122.724C111.49 123.71 117.042 124.799 122.707 125.194C125.407 125.382 128.136 125.832 130.818 125.616C133.641 125.391 136.454 124.696 139.183 123.879C142.608 122.856 146.203 122.264 149.346 120.396C150.193 119.889 151.011 119.391 151.679 118.443C150.07 115.993 147.36 116.49 145.027 116.406C142.928 116.331 140.802 117.241 138.675 116.5C138.59 114.387 141.46 113.289 140.19 110.923C138.666 110.275 137.913 111.495 136.897 112.256C135.165 113.561 134.431 116.105 131.844 116.331" stroke="black" stroke-width="3" stroke-linecap="round" stroke-linejoin="round"/>
<path d="M203.103 143.164C200.591 144.225 197.881 144.432 195.265 145.033C191.727 145.84 188.114 145.934 184.585 146.657C182.101 147.164 179.523 147.248 176.982 147.446C176.248 147.502 175.683 147.709 175.213 148.225" stroke="black" stroke-width="3" stroke-linecap="round" stroke-linejoin="round"/>
<path d="M281.712 214.257C282.088 215.459 283.095 215.318 283.989 215.253C284.93 215.177 285.852 214.933 286.699 214.783C287.358 216.492 287.744 218.266 287.527 220.078C287.264 222.247 288.261 224.078 289.136 225.871" stroke="black" stroke-width="3" stroke-linecap="round" stroke-linejoin="round"/>
<rect x="271.673" y="183.979" width="86.7174" height="86.5215" stroke="black" stroke-width="3"/>
<path d="M103.2 89.2718C103.85 88.8775 104.348 88.6428 104.48 89.7788C105.035 94.5015 105.666 99.2241 106.23 103.947C106.738 108.144 103.351 111.617 98.8813 111.533" stroke="black" stroke-width="3" stroke-linecap="round" stroke-linejoin="round"/>
<path d="M111.566 61.6965C112.497 67.4613 111.321 72.9914 109.486 78.3807C108.733 80.5777 106.927 81.9297 104.471 82.202C103.615 82.2958 102.777 82.5306 101.93 82.6996" stroke="black" stroke-width="3" stroke-linecap="round" stroke-linejoin="round"/>
<path d="M97.8747 159.107C98.364 161.52 97.5265 163.848 97.2724 166.177C96.7267 171.265 97.1501 176.307 97.3383 181.368C97.3383 181.574 97.0184 181.79 96.8584 181.997" stroke="black" stroke-width="3" stroke-linecap="round" stroke-linejoin="round"/>
<path d="M267.767 97.3745C265.828 99.8344 264.454 102.614 263.165 105.449C262.657 106.576 262.563 107.421 263.184 108.519C264.558 110.951 265.113 114.012 268.773 114.406C269.696 114.5 270.326 115.551 270.655 116.828C271.267 119.185 272.359 121.889 271.615 123.861C270.477 126.903 269.197 130.067 266.308 132.367C262.064 135.756 257.303 137.869 252.288 139.606C250.801 140.122 249.248 140.451 247.733 140.892C244.703 141.756 241.617 140.254 240.375 137.353C239.425 135.146 239.161 132.743 238.286 130.546C237.665 128.978 238.757 128.133 239.114 126.978" stroke="black" stroke-width="3" stroke-linecap="round" stroke-linejoin="round"/>
<path d="M239.368 88.7649C244.205 93.1871 250.594 95.2245 255.628 99.5434C256.757 97.6844 255.374 95.5155 256.616 93.8255" stroke="black" stroke-width="3" stroke-linecap="round" stroke-linejoin="round"/>
<path d="M265.48 117.861C261.678 119.129 257.858 120.349 254.075 121.682C252.843 122.114 251.704 122.593 250.519 121.664" stroke="black" stroke-width="3" stroke-linecap="round" stroke-linejoin="round"/>
<path d="M109.665 60.6826C107.294 61.9313 104.537 61.4995 102.184 61.4713C96.9242 61.4056 92.3417 63.0017 87.7215 64.9734C87.5804 65.0297 87.3828 64.9734 87.2134 64.9734" stroke="black" stroke-width="3" stroke-linecap="round" stroke-linejoin="round"/>
<path d="M113.09 114.575C116.139 116.134 119.573 116.584 122.735 117.833C124.269 118.434 125.953 118.659 127.534 119.147C128.804 119.532 130.037 119.842 131.345 119.382" stroke="black" stroke-width="3" stroke-linecap="round" stroke-linejoin="round"/>
<path d="M116.383 108.754C121.041 110.895 126.085 111.927 130.837 113.815" stroke="black" stroke-width="3" stroke-linecap="round" stroke-linejoin="round"/>
<path d="M267.259 114.575C264.916 119.504 264.727 124.696 265.16 130.01C265.236 130.949 266.073 131.409 265.988 132.282" stroke="black" stroke-width="3" stroke-linecap="round" stroke-linejoin="round"/>
<path d="M92.8025 115.335C91.6169 117.091 92.4355 118.002 94.054 118.913C97.705 120.978 101.582 122.227 105.741 122.678" stroke="black" stroke-width="3" stroke-linecap="round" stroke-linejoin="round"/>
<path d="M93.5649 139.118C92.1628 141.005 89.8669 140.714 87.9755 141.362C86.0183 142.028 83.8446 141.831 81.9062 142.667" stroke="black" stroke-width="3" stroke-linecap="round" stroke-linejoin="round"/>
<path d="M98.1286 69.2923C97.1594 68.5318 96.6701 66.2127 94.7881 68.3252C95.1363 69.2266 95.5409 70.1279 95.8326 71.0668C96.6889 73.8553 95.5691 75.4796 92.5486 75.8739C91.8711 75.9584 91.1936 76.0429 90.5161 76.1274" stroke="black" stroke-width="3" stroke-linecap="round" stroke-linejoin="round"/>
<path d="M269.79 77.3855C271.107 79.1976 272.104 81.019 271.897 83.4601C271.747 85.2816 271.37 86.7463 269.79 87.7509" stroke="black" stroke-width="3" stroke-linecap="round" stroke-linejoin="round"/>
<path d="M267.767 77.8926C266.139 79.0568 265.847 80.1553 267.202 81.9862C269.639 85.2817 270.194 89.1781 268.971 93.0557C268.171 95.5813 267.927 97.891 269.31 100.154C270.702 102.416 271.352 105.252 274.109 106.491" stroke="black" stroke-width="3" stroke-linecap="round" stroke-linejoin="round"/>
<path d="M137.433 95.6001C135.965 97.5812 134.977 99.7782 134.365 102.172C134.121 103.111 134.064 104.275 132.869 104.707" stroke="black" stroke-width="3" stroke-linecap="round" stroke-linejoin="round"/>
<path d="M251.789 136.085C249.258 137.597 246.265 138.244 243.932 140.132" stroke="black" stroke-width="3" stroke-linecap="round" stroke-linejoin="round"/>
<path d="M279.557 206.925C279.162 209.544 279.811 212.154 279.679 214.764" stroke="black" stroke-width="3" stroke-linecap="round" stroke-linejoin="round"/>
<path d="M102.692 89.5254C100.688 91.3844 99.559 91.5534 97.1219 90.2765C96.4726 89.9385 95.8233 89.7226 95.0894 89.7789" stroke="black" stroke-width="3" stroke-linecap="round" stroke-linejoin="round"/>
<path d="M251.027 111.035C251.723 113.373 253.52 115.204 254.066 117.617" stroke="black" stroke-width="3" stroke-linecap="round" stroke-linejoin="round"/>
<path d="M97.1123 80.925C98.759 81.4978 100.97 81.4133 101.836 83C102.796 84.7557 104.085 86.549 103.963 88.7648" stroke="black" stroke-width="3" stroke-linecap="round" stroke-linejoin="round"/>
<path d="M114.106 106.989C112.761 108.698 112.403 110.538 113.344 112.556" stroke="black" stroke-width="3" stroke-linecap="round" stroke-linejoin="round"/>
<path d="M102.184 61.9502C103.219 63.9125 102.457 65.5274 101.168 67.0014C100.265 68.0342 99.3144 69.0294 98.3828 70.0434" stroke="black" stroke-width="3" stroke-linecap="round" stroke-linejoin="round"/>
<path d="M315.032 227.239H429.421" stroke="black" stroke-width="3"/>
</svg>
