<svg width="205" height="306" viewBox="0 0 205 306" fill="none" xmlns="http://www.w3.org/2000/svg">
<path d="M91.7009 101.549C92.2963 112.976 92.8067 124.414 93.7954 135.83C94.1675 140.099 94.1143 144.454 94.7097 148.712C95.7304 155.987 96.9636 163.241 98.4202 170.441C99.0049 173.33 100.791 173.691 105.352 173.054C113.422 171.928 121.013 169.496 128.232 165.694C136.588 161.297 134.855 162.402 133.005 155.35C126.998 142.192 117.898 122.183 117.898 122.183C115.186 111.457 113.039 100.614 110.785 89.7816C108.797 80.2023 107.861 70.4106 104.98 61.0225C104.98 61.0225 103.704 55.2982 93.9123 52.1759C87.3632 51.1352 90.7866 51.4856 90.4995 52.6432C90.4251 52.9406 93.5509 61.5216 90.1487 72.5983C84.7372 90.2064 79.3574 126.4 75.6682 146.695C74.722 151.898 71.575 150.327 67.8326 149.488C67.0353 149.307 68.1197 196.662 68.6619 236.678C68.8321 249.465 71.7026 262.145 77.582 273.509C81.9304 281.909 88.2456 290.373 97.2294 295.429C120.109 308.311 178.743 292.519 187.482 294.6C187.482 294.6 219.122 297.701 192.043 300.165C175.692 300.038 159.34 299.974 142.988 299.772C137.332 299.698 131.634 299.655 126.031 298.954C121.725 298.402 117.302 298.392 113.081 296.947C111.518 296.416 110.381 295.885 110.179 294.282C109.148 285.817 108.116 277.343 107.223 268.857C106.383 260.881 105.937 252.863 104.937 244.92C103.672 234.82 102.152 224.752 100.493 214.705C97.3145 205.211 96.7191 190.757 96.7191 190.757C95.6772 179.829 95.422 168.88 94.6778 157.952C94.5927 156.73 94.4333 155.445 95.0287 154.267" stroke="black" stroke-width="3" stroke-linecap="round" stroke-linejoin="round"/>
<path d="M44.613 96.2068C42.1145 98.0441 39.5416 117.033 39.2014 119.263C38.489 123.989 33.3646 155.456 33.4283 160.129C33.5134 165.906 33.1413 171.684 33.7473 177.45L33.3752 182.24C32.9393 192.191 32.5353 202.142 31.908 212.082C31.3658 220.568 30.3026 229.053 29.9092 237.517C29.2394 252.078 24.2744 265.703 21.9461 279.87C21.0211 285.509 19.6496 285.403 20.2662 291.117C20.8829 296.83 16.7259 296.83 16.7259 296.83C-3.07039 296.82 10.5807 302.002 14.4932 296.83C18.4057 291.659 1.56504 288.759 1.56504 295.407C1.56504 302.056 19.6603 314.099 46.0695 286.062C65.0259 265.926 62.4955 168.285 64.8451 126.963C67.1947 85.6505 64.8451 49.7546 64.8451 49.7546L56.2866 52.8982C54.5642 53.3867 52.7463 53.6734 51.1409 54.4062C46.6755 56.4453 42.2208 58.5799 40.7961 63.943C40.7961 63.943 29.0587 103.97 22.3501 119.953C22.3501 119.953 7.38062 155.605 8.22052 157.474C8.74148 158.642 10.9635 159.524 12.5582 160.023C13.9404 160.458 15.2906 160.979 16.5877 161.637C20.1706 163.453 23.7216 165.343 27.8892 165.673C30.1538 165.853 31.9293 165.492 32.6841 163.06" stroke="black" stroke-width="3" stroke-linecap="round" stroke-linejoin="round"/>
<path d="M63.6651 13.8587C64.0053 19.6254 63.2717 25.4133 64.2924 31.1907C64.6964 33.4527 66.5463 35.3325 65.8765 37.807L68.7683 116.852L65.8871 134.481C65.8871 134.481 55.8401 118.435 54.3836 105.563C52.927 92.6915 61.6663 83.3352 58.9552 57.9957C58.9552 57.9957 54.6919 24.2451 60.3055 10.8426C60.3055 10.8426 62.4212 6.03173 66.6101 4.27941C75.562 -0.903178 84.3544 3.64221 87.3101 9.04783C88.6178 11.448 87.9692 14.0074 88.2563 16.45C88.8836 21.7813 88.4264 27.155 86.5233 32.2739C83.4826 40.4407 77.497 41.8851 70.3418 39.177C68.9597 38.6566 67.7264 38.2742 66.2592 38.0937" stroke="black" stroke-width="3" stroke-linecap="round" stroke-linejoin="round"/>
<path d="M86.5232 32.2738C86.5232 32.2738 93.9654 60.8312 90.3613 71.9079C86.7571 82.9846 75.9446 139.483 75.6682 146.684C75.3918 153.884 63.665 147.788 63.665 147.788C63.665 147.788 78.5175 60.2683 77.5075 52.5156C76.4975 44.763 84.652 35.9802 84.652 35.9802L86.5339 32.2632L86.5232 32.2738Z" stroke="black" stroke-width="3" stroke-linecap="round" stroke-linejoin="round"/>
</svg>
