<svg width="251" height="322" viewBox="0 0 251 322" fill="none" xmlns="http://www.w3.org/2000/svg">
<path d="M119.883 16.4128C120.171 17.1782 120.556 17.6975 120.501 18.7909C119.979 29.4236 121.696 39.5233 129.43 47.614C133.442 51.8096 137.604 51.6456 141.258 47.1493C150.312 35.9563 152.152 23.3419 147.907 9.81183C146.176 4.29047 140.159 1.0378 134.651 2.25413C132.7 2.69147 130.845 3.48414 128.936 4.11281L125.13 6.95548C121.394 8.56815 121.064 12.4632 119.429 15.4698" stroke="black" stroke-width="3" stroke-linecap="round" stroke-linejoin="round"/>
<path d="M172.955 155.22C171.057 153.701 172.139 151.599 173.044 150.74C178.087 145.963 183.13 140.723 190.534 140.084C196.449 139.578 202.121 141.141 206.955 144.928" stroke="black" stroke-width="3" stroke-linecap="round" stroke-linejoin="round"/>
<path d="M173.717 155.606C175.968 159.888 175.107 161.605 169.314 164.071C168.398 161.88 169.159 159.656 168.972 157.521C168.74 154.857 170.185 151.434 168.243 149.628C162.461 144.234 160.784 137.057 158.378 130.089L155.398 119.874C154.372 116.527 153.865 113.049 153.865 109.548C153.865 105.211 153.434 101.028 154.218 96.9109" stroke="black" stroke-width="3" stroke-linecap="round" stroke-linejoin="round"/>
<path d="M119.093 16.1233C118.596 11.1146 122.249 5.80878 127.888 3.97045C134.652 1.76885 141.373 1.59272 147.74 5.45653C147.74 5.45653 157.539 12.8759 159.967 19.932C161.258 23.5096 162.395 26.9992 162.362 30.9841C162.284 41.2105 153.346 50.0059 140.887 45.7898C140.347 45.6137 139.861 45.5477 139.342 45.4706" stroke="black" stroke-width="3" stroke-linecap="round" stroke-linejoin="round"/>
<path d="M80.8895 115.966C81.0219 116.219 81.0881 116.516 81.2757 116.725C85.7118 121.481 86.5394 127.183 86.8043 133.491C87.0691 139.787 93.8447 143.992 99.2188 142.264" stroke="black" stroke-width="3" stroke-linecap="round" stroke-linejoin="round"/>
<path d="M195.114 157.884C195.721 158.303 196.339 158.721 197.122 159.271C199.053 152.887 195.555 147.746 193.403 142.341C199.12 142.605 203.633 147.217 209.294 144.785C208.566 141.449 207.341 138.554 205.807 135.791L193.58 116.736C191.538 113.687 189.508 110.638 187.467 107.589L166.069 77.8671C166.069 76.6892 164.182 76.5791 164.547 75.2031" stroke="black" stroke-width="3" stroke-linecap="round" stroke-linejoin="round"/>
<path d="M184.796 75.5775C180.614 76.0399 177.546 73.3759 173.816 71.8678C177.767 70.4148 183.968 72.6824 185.557 75.9518C186.142 77.1627 184.454 83.5473 183.24 83.8776C182.302 84.1307 181.143 84.2959 180.172 83.2281C178.66 81.5769 176.895 80.1458 175.24 78.6157C175.24 78.6157 177.082 78.2194 172.944 77.0966C165.805 75.6766 160.309 72.2531 156.381 65.7474C153.18 60.4635 149.34 55.4329 144.683 51.1728C140.733 47.5512 139.497 47.4411 134.332 49.5876C134.332 49.5876 123.871 60.0783 122.514 71.4165C121.157 82.7547 125.824 133.16 119.843 152.545C114.922 168.474 107.892 217.57 110.43 232.574C112.969 247.578 121.157 297.025 143.205 319.581C143.205 319.581 205.807 320.979 236.826 258.002C267.846 195.025 229.797 182.421 229.797 182.421C229.797 182.421 195.29 173.813 188.162 167.197" stroke="black" stroke-width="3" stroke-linecap="round" stroke-linejoin="round"/>
<path d="M109.162 93.1021C110.618 90.4932 111.302 87.7302 111.093 84.714C110.762 79.7714 112.34 75.4453 115.661 71.7576L124.07 54.5411C124.07 54.5411 128.97 48.1234 122.547 44.3257C121.399 42.2892 119.976 40.3628 119.159 38.2052C116.665 31.6555 116.047 25.0176 119.104 18.4128" stroke="black" stroke-width="3" stroke-linecap="round" stroke-linejoin="round"/>
<path d="M185.182 149.507C186.495 151.412 185.877 153.558 185.921 155.606C186.01 160.02 185.943 160.031 190.534 160.933C191.295 161.088 192.057 161.198 192.829 161.319C195.621 156.927 194.661 151.654 190.534 148.737" stroke="black" stroke-width="3" stroke-linecap="round" stroke-linejoin="round"/>
<path d="M150.035 84.7251C152.496 90.7355 154.527 96.8999 157.594 102.679C157.594 102.679 162.406 115.03 163.465 119.004C166.091 128.9 169.016 138.708 168.376 149.122" stroke="black" stroke-width="3" stroke-linecap="round" stroke-linejoin="round"/>
<path d="M82.7983 101.865C78.903 101.457 75.4048 102.591 72.1053 104.528" stroke="black" stroke-width="3" stroke-linecap="round" stroke-linejoin="round"/>
<path d="M208.477 145.688C211.446 150.047 211.236 150.828 205.807 155.595L201.227 160.934C198.546 165.194 193.668 164.434 189.762 165.887L187.091 166.272C184.167 168.177 181.287 170.18 178.285 171.964C174.964 173.934 172.382 173.252 169.844 170.511C168.541 169.102 169.369 168.177 169.899 167.032L171.201 163.201" stroke="black" stroke-width="3" stroke-linecap="round" stroke-linejoin="round"/>
<path d="M80.8896 106.059C78.5502 105.816 76.4204 106.323 74.3789 107.545C72.823 108.48 71.3222 109.284 71.3443 111.387C71.3664 113.401 73.0437 113.885 74.4231 114.381C75.7694 114.865 76.4977 115.294 75.5486 116.725" stroke="black" stroke-width="3" stroke-linecap="round" stroke-linejoin="round"/>
<path d="M190.523 154.075C190.777 156.233 191.031 158.391 191.285 160.559" stroke="black" stroke-width="3" stroke-linecap="round" stroke-linejoin="round"/>
<path d="M186.319 77.0966C188.703 77.5259 190.269 75.9077 192.046 74.8069L193.569 73.2878C196.626 69.7873 199.34 66.0996 200.444 61.4542C199.373 60.4195 198.215 59.726 196.626 59.5278C189.354 58.6032 182.092 57.6455 174.853 56.4896C164.966 54.9155 155.498 51.9763 146.582 47.375" stroke="black" stroke-width="3" stroke-linecap="round" stroke-linejoin="round"/>
<path d="M77.833 110.253C76.3212 111.166 74.4894 111.541 73.2535 112.917" stroke="black" stroke-width="3" stroke-linecap="round" stroke-linejoin="round"/>
<path d="M176.773 150.267C175.88 151.786 174.986 153.316 174.103 154.835" stroke="black" stroke-width="3" stroke-linecap="round" stroke-linejoin="round"/>
<path d="M187.853 155.606C187.345 157.147 188.647 158.347 188.614 159.8" stroke="black" stroke-width="3" stroke-linecap="round" stroke-linejoin="round"/>
<path d="M128.197 51.426C128.197 51.426 120.097 62.7973 119.854 77.7351C119.611 92.673 119.645 118.872 119.049 130.485C118.453 142.099 96.0295 228.27 72.1054 251.078C60.8054 261.844 41.7258 270.793 30.9555 258.861L16.2788 244.87C-12.5338 216.865 6.86588 212.682 31.6176 209.336C39.2318 208.301 55.8507 199.616 62.0083 195.036C72.5689 187.188 83.7695 175.739 94.2859 155.231C97.4751 150.3 99.1303 144.796 100.841 139.237C102.75 133.061 104.637 126.886 105.663 120.534C106.877 113.049 107.649 105.497 109.095 98.0449C109.371 96.6249 109.845 94.8196 108.367 93.3995C104.979 95.6672 101.293 97.2413 97.3206 98.0339C94.6722 98.5623 91.9796 98.8705 89.2981 99.1897C84.6302 99.7622 81.6838 103.285 82.037 107.963C82.5777 115.129 81.8935 116.098 76.3097 115.966" stroke="black" stroke-width="3" stroke-linecap="round" stroke-linejoin="round"/>
</svg>
