<svg width="174" height="101" viewBox="0 0 174 101" fill="none" xmlns="http://www.w3.org/2000/svg">
<path opacity="0.2" d="M1.91566 80.5778C5.77432 94.9785 23.4662 102.75 41.4317 97.9363C59.3972 93.1224 70.8331 77.5461 66.9745 63.1453C64.812 55.0748 56.8938 50.1842 49.2888 52.222C41.6838 54.2598 37.2717 62.4542 39.4342 70.5247C43.2929 84.9254 60.9848 92.697 78.9503 87.8832C96.9158 83.0693 108.352 67.4929 104.493 53.0921C102.331 45.0216 94.4126 40.1311 86.8074 42.1689C79.2023 44.2067 74.7903 52.4011 76.9528 60.4717C80.8114 74.8724 98.5928 82.62 116.668 77.7767C134.744 72.9333 146.27 57.3329 142.411 42.9322C140.249 34.8616 132.33 29.9711 124.725 32.009C117.12 34.0468 112.708 42.241 114.871 50.3115C118.73 64.7122 136.421 72.484 154.387 67.6701C172.352 62.8562 183.787 47.28 179.929 32.8793C177.766 24.8088 169.849 19.918 162.244 21.9558C154.639 23.9936 150.226 32.1881 152.389 40.2587C156.247 54.6594 173.94 62.4308 191.905 57.6169C209.871 52.8031 221.306 37.2269 217.448 22.8262C215.285 14.7556 207.367 9.86512 199.763 11.9026C192.157 13.9405 187.745 22.135 189.908 30.2055C193.766 44.6062 211.459 52.3776 229.423 47.5641C247.389 42.7502 258.825 27.1737 254.967 12.773C252.804 4.70249 244.886 -0.188034 237.28 1.84979C229.676 3.88731 225.264 12.0818 227.427 20.1524C231.285 34.5531 249.066 42.3009 267.141 37.4575C285.217 32.6142 296.743 17.0138 292.884 2.61304" stroke="white" stroke-width="2" stroke-linecap="round"/>
</svg>
