<svg width="22" height="22" viewBox="0 0 22 22" fill="none" xmlns="http://www.w3.org/2000/svg">
<path d="M16.75 6.75C16.75 7.28043 16.5393 7.78914 16.1642 8.16421C15.7891 8.53929 15.2804 8.75 14.75 8.75C14.2196 8.75 13.7109 8.53929 13.3358 8.16421C12.9607 7.78914 12.75 7.28043 12.75 6.75C12.75 6.21957 12.9607 5.71086 13.3358 5.33579C13.7109 4.96071 14.2196 4.75 14.75 4.75C15.2804 4.75 15.7891 4.96071 16.1642 5.33579C16.5393 5.71086 16.75 6.21957 16.75 6.75Z" fill="white"/>
<path fill-rule="evenodd" clip-rule="evenodd" d="M10.693 0H10.807C13.116 0 14.925 5.96046e-08 16.337 0.19C17.781 0.384 18.921 0.79 19.816 1.684C20.711 2.579 21.116 3.719 21.31 5.164C21.5 6.575 21.5 8.384 21.5 10.693V10.781C21.5 12.69 21.5 14.252 21.396 15.524C21.292 16.804 21.079 17.871 20.601 18.759C20.391 19.15 20.131 19.501 19.816 19.816C18.921 20.711 17.781 21.116 16.336 21.31C14.925 21.5 13.116 21.5 10.807 21.5H10.693C8.384 21.5 6.575 21.5 5.163 21.31C3.719 21.116 2.579 20.71 1.684 19.816C0.891 19.023 0.481 18.036 0.264 16.81C0.0490001 15.607 0.00999997 14.11 0.00199997 12.252C-2.58442e-08 11.779 0 11.279 0 10.751V10.693C0 8.384 5.96046e-08 6.575 0.19 5.163C0.384 3.719 0.79 2.579 1.684 1.684C2.579 0.789 3.719 0.384 5.164 0.19C6.575 5.96046e-08 8.384 0 10.693 0ZM5.363 1.676C4.085 1.848 3.314 2.176 2.745 2.745C2.175 3.315 1.848 4.085 1.676 5.364C1.502 6.664 1.5 8.372 1.5 10.75V11.594L2.501 10.718C2.94007 10.3337 3.50882 10.1306 4.09203 10.1499C4.67524 10.1692 5.22931 10.4094 5.642 10.822L9.932 15.112C10.2649 15.4448 10.7046 15.6496 11.1735 15.6902C11.6425 15.7308 12.1108 15.6047 12.496 15.334L12.794 15.124C13.3497 14.7335 14.0214 14.5432 14.6993 14.584C15.3773 14.6249 16.0213 14.8946 16.526 15.349L19.356 17.896C19.642 17.298 19.811 16.512 19.901 15.403C19.999 14.198 20 12.696 20 10.75C20 8.372 19.998 6.664 19.824 5.364C19.652 4.085 19.324 3.314 18.755 2.744C18.185 2.175 17.415 1.848 16.136 1.676C14.836 1.502 13.128 1.5 10.75 1.5C8.372 1.5 6.663 1.502 5.363 1.676Z" fill="white"/>
</svg>
