<svg width="42" height="51" viewBox="0 0 42 51" fill="none" xmlns="http://www.w3.org/2000/svg">
<path d="M0 0H21.7241H42V47.7978C42 49.2763 40.4511 50.2437 39.1225 49.595L22.5722 41.514C22.0352 41.2518 21.4091 41.2434 20.8653 41.4912L2.82938 49.7106C1.505 50.3141 3.69099e-06 49.3461 3.58213e-06 47.8907L0 0Z" fill="#4C6042"/>
<path d="M13.77 11C14.3967 11 14.9333 11.1567 15.38 11.47C15.8267 11.7833 16.1633 12.2067 16.39 12.74C16.6167 13.2667 16.73 13.8533 16.73 14.5C16.73 15.1533 16.6167 15.7467 16.39 16.28C16.1633 16.8067 15.8267 17.2267 15.38 17.54C14.9333 17.8467 14.3967 18 13.77 18H11.31C11.1767 18 11.0633 17.9533 10.97 17.86C10.8767 17.7667 10.83 17.6533 10.83 17.52V11.48C10.83 11.3467 10.8767 11.2333 10.97 11.14C11.0633 11.0467 11.1767 11 11.31 11H13.77ZM13.67 17.08C14.35 17.08 14.86 16.84 15.2 16.36C15.54 15.8733 15.71 15.2533 15.71 14.5C15.71 13.7533 15.5367 13.1367 15.19 12.65C14.85 12.1633 14.3433 11.92 13.67 11.92H11.82V17.08H13.67ZM19.278 17.52C19.278 17.6533 19.2313 17.7667 19.138 17.86C19.0513 17.9533 18.938 18 18.798 18C18.6646 18 18.5513 17.9533 18.458 17.86C18.3713 17.7667 18.328 17.6533 18.328 17.52V13.19C18.328 13.0567 18.3713 12.9433 18.458 12.85C18.5513 12.7567 18.6646 12.71 18.798 12.71C18.938 12.71 19.0513 12.7567 19.138 12.85C19.2313 12.9433 19.278 13.0567 19.278 13.19V17.52ZM18.798 12.05C18.6046 12.05 18.4646 12.0167 18.378 11.95C18.298 11.8767 18.258 11.7633 18.258 11.61V11.45C18.258 11.29 18.3013 11.1767 18.388 11.11C18.4813 11.0433 18.6213 11.01 18.808 11.01C18.9946 11.01 19.128 11.0467 19.208 11.12C19.2946 11.1867 19.338 11.2967 19.338 11.45V11.61C19.338 11.77 19.2946 11.8833 19.208 11.95C19.1213 12.0167 18.9846 12.05 18.798 12.05ZM20.8436 17.18C20.7836 17.0867 20.7536 16.9967 20.7536 16.91C20.7536 16.7767 20.8236 16.6633 20.9636 16.57C21.0303 16.5233 21.1069 16.5 21.1936 16.5C21.3136 16.5 21.4236 16.55 21.5236 16.65C21.7236 16.8767 21.9369 17.0467 22.1636 17.16C22.3969 17.2733 22.6736 17.33 22.9936 17.33C23.2469 17.3233 23.4703 17.2667 23.6636 17.16C23.8569 17.0467 23.9536 16.8667 23.9536 16.62C23.9536 16.3933 23.8536 16.22 23.6536 16.1C23.4603 15.98 23.1736 15.87 22.7936 15.77C22.4203 15.67 22.1103 15.5667 21.8636 15.46C21.6169 15.3467 21.4069 15.1867 21.2336 14.98C21.0669 14.7667 20.9836 14.49 20.9836 14.15C20.9836 13.85 21.0669 13.5867 21.2336 13.36C21.4069 13.1333 21.6336 12.9567 21.9136 12.83C22.2003 12.7033 22.5103 12.64 22.8436 12.64C23.1636 12.64 23.4803 12.7 23.7936 12.82C24.1136 12.94 24.3736 13.1233 24.5736 13.37C24.6536 13.4633 24.6936 13.56 24.6936 13.66C24.6936 13.7667 24.6403 13.87 24.5336 13.97C24.4669 14.03 24.3836 14.06 24.2836 14.06C24.1636 14.06 24.0669 14.02 23.9936 13.94C23.8536 13.78 23.6803 13.6567 23.4736 13.57C23.2736 13.4833 23.0503 13.44 22.8036 13.44C22.5503 13.44 22.3336 13.4933 22.1536 13.6C21.9803 13.7 21.8936 13.8733 21.8936 14.12C21.9003 14.3533 22.0003 14.5267 22.1936 14.64C22.3936 14.7533 22.6969 14.8633 23.1036 14.97C23.4569 15.0633 23.7503 15.1633 23.9836 15.27C24.2169 15.3767 24.4136 15.5367 24.5736 15.75C24.7336 15.9567 24.8136 16.23 24.8136 16.57C24.8136 16.8833 24.7236 17.1567 24.5436 17.39C24.3636 17.6167 24.1269 17.7933 23.8336 17.92C23.5469 18.04 23.2403 18.1 22.9136 18.1C22.4936 18.1 22.1036 18.0267 21.7436 17.88C21.3903 17.7333 21.0903 17.5 20.8436 17.18ZM28.6892 12.64C29.2159 12.64 29.6526 12.7233 29.9992 12.89C30.3526 13.0567 30.5292 13.27 30.5292 13.53C30.5292 13.6433 30.4926 13.7467 30.4192 13.84C30.3459 13.9267 30.2526 13.97 30.1392 13.97C30.0526 13.97 29.9826 13.9567 29.9292 13.93C29.8826 13.9033 29.8159 13.86 29.7292 13.8C29.6892 13.76 29.6259 13.7133 29.5392 13.66C29.4592 13.62 29.3459 13.5867 29.1992 13.56C29.0526 13.5333 28.9192 13.52 28.7992 13.52C28.4526 13.52 28.1459 13.6 27.8792 13.76C27.6126 13.92 27.4059 14.1433 27.2592 14.43C27.1126 14.71 27.0392 15.0233 27.0392 15.37C27.0392 15.7233 27.1092 16.04 27.2492 16.32C27.3959 16.6 27.5992 16.82 27.8592 16.98C28.1192 17.14 28.4159 17.22 28.7492 17.22C29.0959 17.22 29.3759 17.1667 29.5892 17.06C29.6359 17.0333 29.6992 16.99 29.7792 16.93C29.8459 16.8767 29.9026 16.8367 29.9492 16.81C30.0026 16.7833 30.0659 16.77 30.1392 16.77C30.2726 16.77 30.3759 16.8133 30.4492 16.9C30.5292 16.98 30.5692 17.0867 30.5692 17.22C30.5692 17.36 30.4792 17.5 30.2992 17.64C30.1259 17.7733 29.8892 17.8833 29.5892 17.97C29.2959 18.0567 28.9792 18.1 28.6392 18.1C28.1326 18.1 27.6859 17.9833 27.2992 17.75C26.9126 17.51 26.6126 17.1833 26.3992 16.77C26.1926 16.35 26.0892 15.8833 26.0892 15.37C26.0892 14.8567 26.1992 14.3933 26.4192 13.98C26.6392 13.56 26.9459 13.2333 27.3392 13C27.7326 12.76 28.1826 12.64 28.6892 12.64Z" fill="white"/>
<path d="M10.108 26.036C9.844 26.036 9.568 26.072 9.304 26.144L9.448 24.956H12.4C12.784 24.956 13.084 24.644 13.084 24.284C13.084 23.9 12.784 23.6 12.4 23.6H8.86C8.74 23.6 8.644 23.624 8.548 23.672C8.536 23.684 8.524 23.684 8.512 23.696C8.5 23.708 8.488 23.708 8.464 23.72C8.308 23.828 8.2 23.996 8.164 24.2L7.804 27.308C7.792 27.368 7.792 27.44 7.804 27.512C7.804 27.524 7.816 27.524 7.816 27.536C7.816 27.56 7.828 27.584 7.828 27.62C7.84 27.632 7.852 27.656 7.852 27.68C7.864 27.68 7.864 27.692 7.864 27.716C7.912 27.764 7.948 27.824 7.996 27.872C8.26 28.136 8.692 28.136 8.956 27.872C9.268 27.548 9.7 27.404 10.108 27.404C10.528 27.404 10.936 27.548 11.248 27.872C11.572 28.184 11.728 28.592 11.728 29.024C11.728 29.432 11.56 29.852 11.248 30.164C10.936 30.488 10.516 30.644 10.108 30.644C9.676 30.644 9.268 30.488 8.956 30.164C8.692 29.9 8.248 29.9 7.996 30.164C7.72 30.44 7.72 30.872 7.996 31.124C8.56 31.712 9.34 32 10.084 32C10.084 32 10.084 32 10.108 32C10.864 32 11.632 31.712 12.208 31.124C12.784 30.548 13.084 29.78 13.084 29.024C13.084 28.256 12.796 27.488 12.208 26.912C11.632 26.324 10.864 26.036 10.108 26.036ZM16.4616 30.668C16.9656 31.424 17.7456 32 18.6936 32C19.6176 32 20.4096 31.424 20.9136 30.668C21.4296 29.9 21.7176 28.892 21.7176 27.8C21.7176 26.696 21.4296 25.7 20.9136 24.932C20.4096 24.164 19.6176 23.6 18.6936 23.6C17.7456 23.6 16.9656 24.164 16.4616 24.932C15.9336 25.7 15.6576 26.696 15.6456 27.8C15.6576 28.892 15.9336 29.9 16.4616 30.668ZM19.8096 29.924C19.4616 30.44 19.0656 30.668 18.6936 30.668C18.3216 30.668 17.9136 30.44 17.5536 29.924C17.2176 29.42 16.9776 28.652 16.9776 27.8C16.9776 26.936 17.2176 26.18 17.5536 25.664C17.9136 25.16 18.3216 24.92 18.6936 24.932C19.0656 24.92 19.4616 25.16 19.8096 25.664C20.1456 26.18 20.3856 26.936 20.3856 27.8C20.3856 28.652 20.1456 29.42 19.8096 29.924ZM26.3732 23.312C27.0452 23.312 27.5532 23.548 27.8972 24.02C28.2492 24.484 28.4252 25.14 28.4252 25.988C28.4252 26.836 28.2612 27.5 27.9332 27.98C27.6052 28.452 27.0852 28.688 26.3732 28.688C25.7172 28.688 25.2172 28.452 24.8732 27.98C24.5292 27.5 24.3572 26.836 24.3572 25.988C24.3572 25.14 24.5172 24.484 24.8372 24.02C25.1572 23.548 25.6692 23.312 26.3732 23.312ZM32.4572 23.432L27.7052 32H26.3012L31.0532 23.432H32.4572ZM26.3852 24.536C26.0172 24.536 25.8332 25.024 25.8332 26C25.8332 26.984 26.0172 27.476 26.3852 27.476C26.7612 27.476 26.9492 26.984 26.9492 26C26.9492 25.024 26.7612 24.536 26.3852 24.536ZM32.3732 26.732C33.0452 26.732 33.5532 26.968 33.8972 27.44C34.2492 27.904 34.4252 28.56 34.4252 29.408C34.4252 30.256 34.2612 30.92 33.9332 31.4C33.6052 31.872 33.0852 32.108 32.3732 32.108C31.7172 32.108 31.2172 31.872 30.8732 31.4C30.5292 30.92 30.3572 30.256 30.3572 29.408C30.3572 28.56 30.5172 27.904 30.8372 27.44C31.1572 26.968 31.6692 26.732 32.3732 26.732ZM32.3852 27.956C32.0172 27.956 31.8332 28.444 31.8332 29.42C31.8332 30.404 32.0172 30.896 32.3852 30.896C32.7612 30.896 32.9492 30.404 32.9492 29.42C32.9492 28.444 32.7612 27.956 32.3852 27.956Z" fill="white"/>
</svg>
