<svg width="15" height="13" viewBox="0 0 15 13" fill="none" xmlns="http://www.w3.org/2000/svg">
<rect width="13.4012" height="11.1238" transform="translate(1 1)" fill="white"/>
<path fill-rule="evenodd" clip-rule="evenodd" d="M7.70058 4.72956C7.5967 3.48196 6.783 1 4.35057 1C1.91379 1 1 3.03794 1 4.73623C1 7.96258 4.65429 11.2738 7.70004 12.1235V12.1238C7.70022 12.1237 7.7004 12.1237 7.70058 12.1236C7.70077 12.1237 7.70095 12.1237 7.70113 12.1238V12.1235C10.7469 11.2738 14.4012 7.96258 14.4012 4.73623C14.4012 3.03794 13.4874 1 11.0506 1C8.61816 1 7.80447 3.48196 7.70058 4.72956Z" fill="#FF0000"/>
<path d="M7.70058 4.72956L7.20231 4.77105C7.22389 5.03021 7.44053 5.22956 7.70058 5.22956C7.96064 5.22956 8.17728 5.03021 8.19886 4.77105L7.70058 4.72956ZM7.70004 12.1235H8.20004C8.20004 11.8991 8.05053 11.7021 7.83438 11.6418L7.70004 12.1235ZM7.70004 12.1238H7.20004C7.20004 12.2803 7.27334 12.4278 7.39811 12.5223C7.52289 12.6168 7.68472 12.6475 7.83541 12.6051L7.70004 12.1238ZM7.70058 12.1236L7.83596 11.6423C7.74743 11.6174 7.65374 11.6174 7.56521 11.6423L7.70058 12.1236ZM7.70113 12.1238L7.56576 12.6051C7.71645 12.6475 7.87828 12.6168 8.00306 12.5223C8.12783 12.4278 8.20113 12.2803 8.20113 12.1238H7.70113ZM7.70113 12.1235L7.56678 11.6418C7.35064 11.7021 7.20113 11.8991 7.20113 12.1235H7.70113ZM4.35057 1.5C5.36363 1.5 6.03353 2.00411 6.48346 2.67533C6.94544 3.36452 7.15555 4.20953 7.20231 4.77105L8.19886 4.68807C8.14173 4.00199 7.89305 2.98221 7.31411 2.11853C6.72311 1.23687 5.76994 0.5 4.35057 0.5V1.5ZM1.5 4.73623C1.5 3.96597 1.70902 3.14395 2.1637 2.52829C2.60367 1.93255 3.29285 1.5 4.35057 1.5V0.5C2.97151 0.5 1.98541 1.08642 1.35929 1.93422C0.747878 2.7621 0.5 3.80819 0.5 4.73623H1.5ZM7.83438 11.6418C6.41006 11.2445 4.8098 10.2573 3.56715 8.97338C2.31881 7.68355 1.5 6.16747 1.5 4.73623H0.5C0.5 6.53133 1.50834 8.28405 2.84858 9.66884C4.1945 11.0595 5.94426 12.1528 7.56569 12.6051L7.83438 11.6418ZM7.20004 12.1235V12.1238H8.20004V12.1235H7.20004ZM7.83541 12.6051L7.83596 12.6049L7.56521 11.6423L7.56466 11.6424L7.83541 12.6051ZM7.83651 11.6424L7.83596 11.6423L7.56521 12.6049L7.56576 12.6051L7.83651 11.6424ZM7.20113 12.1235V12.1238H8.20113V12.1235H7.20113ZM7.83548 12.6051C9.45691 12.1528 11.2067 11.0595 12.5526 9.66884C13.8928 8.28405 14.9012 6.53133 14.9012 4.73623H13.9012C13.9012 6.16747 13.0824 7.68355 11.834 8.97338C10.5914 10.2573 8.99111 11.2445 7.56678 11.6418L7.83548 12.6051ZM14.9012 4.73623C14.9012 3.80819 14.6533 2.7621 14.0419 1.93422C13.4158 1.08642 12.4297 0.5 11.0506 0.5V1.5C12.1083 1.5 12.7975 1.93255 13.2375 2.52829C13.6921 3.14395 13.9012 3.96597 13.9012 4.73623H14.9012ZM11.0506 0.5C9.63123 0.5 8.67806 1.23687 8.08706 2.11853C7.50811 2.98221 7.25944 4.00199 7.20231 4.68807L8.19886 4.77105C8.24562 4.20953 8.45573 3.36452 8.91771 2.67533C9.36764 2.00411 10.0375 1.5 11.0506 1.5V0.5Z" fill="#FF0000"/>
</svg>
