<svg width="20" height="20" viewBox="0 0 20 20" fill="none" xmlns="http://www.w3.org/2000/svg">
<path d="M19.4628 8.69904C19.4623 8.69858 19.4618 8.69812 19.4614 8.69766L11.3021 0.539551C10.9544 0.19165 10.492 0 10.0001 0C9.50828 0 9.04589 0.191498 8.69796 0.539398L0.542984 8.69339C0.540237 8.69614 0.53749 8.69904 0.534743 8.70178C-0.179441 9.42001 -0.17822 10.5853 0.538253 11.3017C0.865587 11.6292 1.29791 11.8188 1.76015 11.8387C1.77892 11.8405 1.79784 11.8414 1.81692 11.8414H2.14212V17.8453C2.14212 19.0334 3.10886 20 4.29733 20H7.48949C7.81301 20 8.07549 19.7377 8.07549 19.4141V14.707C8.07549 14.1649 8.51651 13.7239 9.05871 13.7239H10.9415C11.4837 13.7239 11.9248 14.1649 11.9248 14.707V19.4141C11.9248 19.7377 12.1871 20 12.5108 20H15.7029C16.8914 20 17.8581 19.0334 17.8581 17.8453V11.8414H18.1597C18.6514 11.8414 19.1138 11.6499 19.4618 11.302C20.1791 10.5844 20.1794 9.41711 19.4628 8.69904Z" fill="#A7A7A7"/>
</svg>
