<svg width="20" height="19" viewBox="0 0 20 19" fill="none" xmlns="http://www.w3.org/2000/svg">
<path d="M13.7469 16.7707C13.7474 15.8035 14.5318 15.0352 15.4859 15.0357C16.4277 15.0362 17.2045 15.8152 17.2232 16.7769C17.2203 17.7421 16.4368 18.5081 15.4841 18.5076C14.5147 18.507 13.7463 17.7227 13.7469 16.7707Z" stroke="white"/>
<path d="M9.49776 16.6791L9.49769 16.6791L9.49812 16.6872C9.54679 17.6207 8.80933 18.4256 7.85196 18.482L7.82285 18.4819C6.91197 18.4815 6.16133 17.7518 6.12828 16.8347C6.09578 15.8899 6.8218 15.0881 7.7945 15.0316C8.70603 15.0389 9.46524 15.7724 9.49776 16.6791Z" stroke="white"/>
<path d="M18.1915 3.59564L5.4214 3.59564C5.12211 3.59564 4.88986 3.85682 4.92483 4.15406L5.79268 11.5308C5.85193 12.0344 6.27875 12.414 6.78583 12.414L16.9883 12.414C17.4735 12.414 17.8887 12.0656 17.9731 11.5878L19.1763 4.76943C19.2843 4.15709 18.8133 3.59564 18.1915 3.59564Z" stroke="white"/>
<path d="M5.14955 6.18938L4.72088 1.90263C4.66976 1.39143 4.23959 1.00214 3.72584 1.00214L0.999756 1.00214" stroke="white" stroke-linecap="round"/>
</svg>
