<svg width="20" height="21" viewBox="0 0 20 21" fill="none" xmlns="http://www.w3.org/2000/svg">
<path fill-rule="evenodd" clip-rule="evenodd" d="M8.31365 0.710918C8.4905 0.49876 8.70985 0.326025 8.95756 0.203855C9.20527 0.0816842 9.47583 0.0127908 9.7518 0.00161783C10.0278 -0.00955511 10.303 0.0372405 10.5598 0.138987C10.8166 0.240733 11.0492 0.39517 11.2426 0.592337L11.3493 0.710918L15.2348 5.3731H18.1845C18.3918 5.37266 18.597 5.41603 18.7864 5.50037C18.9759 5.58471 19.1454 5.70812 19.2838 5.86252C19.4223 6.01691 19.5265 6.19881 19.5898 6.3963C19.653 6.59379 19.6739 6.80242 19.6509 7.00852L19.56 7.76545L19.4612 8.4967L19.3802 9.04415L19.2863 9.63211L19.1796 10.2497L19.059 10.89L18.9246 11.5432C18.8535 11.8726 18.777 12.2017 18.6954 12.5304C18.4766 13.3981 18.202 14.2506 17.8732 15.0828L17.6548 15.6165L17.4433 16.0987L17.2437 16.5275L17.1508 16.7193L16.9048 17.2035C16.5886 17.8062 15.9917 18.162 15.3603 18.2134L15.2022 18.2193H4.4509C4.10544 18.2219 3.76576 18.1306 3.46815 17.9551C3.17053 17.7797 2.92616 17.5267 2.76113 17.2232L2.53188 16.7785L2.35401 16.4129L2.26013 16.2103L2.0625 15.7667C1.6112 14.7187 1.24505 13.6361 0.967606 12.5294C0.91396 12.3145 0.862572 12.0991 0.813452 11.8832L0.673132 11.2428L0.547634 10.6163L0.43696 10.0106L0.338143 9.43052L0.252172 8.88307L0.179048 8.37614L0.0901122 7.70122L0.0248931 7.1518L0.00809428 7.00061C-0.0123465 6.80648 0.00602175 6.61021 0.0621305 6.42324C0.118239 6.23626 0.210968 6.06232 0.334923 5.91151C0.458878 5.76071 0.611584 5.63605 0.784156 5.54481C0.956729 5.45356 1.14572 5.39755 1.34015 5.38002L1.47454 5.3731H4.42817L8.31365 0.710918ZM7.8166 10.0392C7.74976 9.80608 7.5995 9.60566 7.39443 9.47612C7.18937 9.34659 6.94383 9.297 6.70458 9.3368C6.46532 9.3766 6.24905 9.503 6.09696 9.69193C5.94486 9.88087 5.86757 10.1191 5.87979 10.3614L5.89264 10.476L6.38672 13.4405L6.41143 13.5532C6.47827 13.7863 6.62854 13.9867 6.8336 14.1163C7.03866 14.2458 7.2842 14.2954 7.52346 14.2556C7.76272 14.2158 7.97898 14.0894 8.13107 13.9005C8.28317 13.7115 8.36046 13.4733 8.34824 13.231L8.33539 13.1164L7.84131 10.1519L7.8166 10.0392ZM12.958 9.33961C12.7192 9.29977 12.4741 9.34901 12.2691 9.47798C12.0642 9.60695 11.9138 9.80667 11.8464 10.0392L11.8217 10.1519L11.3276 13.1164C11.2863 13.365 11.3416 13.62 11.4822 13.8292C11.6227 14.0384 11.8379 14.186 12.0836 14.2418C12.3294 14.2976 12.5872 14.2573 12.8043 14.1293C13.0214 14.0013 13.1814 13.7952 13.2515 13.5532L13.2762 13.4405L13.7703 10.476C13.8132 10.2176 13.7517 9.95277 13.5994 9.73969C13.4471 9.5266 13.2164 9.3827 12.958 9.33961ZM9.83148 1.97577L7.00038 5.3731H12.6626L9.83148 1.97577Z" fill="#B2B2B2"/>
</svg>
