<svg width="16" height="14" viewBox="0 0 16 14" fill="none" xmlns="http://www.w3.org/2000/svg">
<path d="M8.22839 5.02334L7.73011 5.06483C7.75169 5.32399 7.96833 5.52334 8.22839 5.52334C8.48845 5.52334 8.70509 5.32399 8.72666 5.06483L8.22839 5.02334ZM8.2278 12.9996H8.7278C8.7278 12.7752 8.57829 12.5783 8.36214 12.518L8.2278 12.9996ZM8.2278 13H7.7278C7.7278 13.1564 7.80097 13.3038 7.92555 13.3983C8.05014 13.4928 8.21178 13.5236 8.36239 13.4815L8.2278 13ZM8.22839 12.9998L8.36299 12.5183C8.27494 12.4937 8.18183 12.4937 8.09379 12.5183L8.22839 12.9998ZM8.22898 13L8.09438 13.4815C8.245 13.5236 8.40664 13.4928 8.53122 13.3983C8.65581 13.3038 8.72898 13.1564 8.72898 13H8.22898ZM8.22898 12.9996L8.09463 12.518C7.87848 12.5783 7.72898 12.7752 7.72898 12.9996H8.22898ZM4.61449 1.5C5.72336 1.5 6.45718 2.05299 6.94811 2.78536C7.45109 3.53572 7.67927 4.45417 7.73011 5.06483L8.72666 4.98185C8.66545 4.24663 8.3987 3.15341 7.77875 2.22856C7.14676 1.28574 6.12966 0.5 4.61449 0.5V1.5ZM1.5 5.03053C1.5 4.19339 1.72701 3.29779 2.22368 2.62528C2.70564 1.97268 3.4608 1.5 4.61449 1.5V0.5C3.13946 0.5 2.08738 1.12655 1.41927 2.0312C0.765872 2.91594 0.5 4.03561 0.5 5.03053H1.5ZM8.36214 12.518C6.81786 12.0872 5.08566 11.0181 3.74106 9.62884C2.39077 8.23367 1.5 6.58884 1.5 5.03053H0.5C0.5 6.95271 1.5803 8.83416 3.02249 10.3243C4.47036 11.8203 6.35207 12.9955 8.09345 13.4813L8.36214 12.518ZM7.7278 12.9996V13H8.7278V12.9996H7.7278ZM8.36239 13.4815L8.36299 13.4814L8.09379 12.5183L8.0932 12.5184L8.36239 13.4815ZM8.36358 12.5184C8.36358 12.5184 8.36358 12.5184 8.36358 12.5184C8.36358 12.5184 8.36358 12.5184 8.36358 12.5184C8.36358 12.5184 8.36358 12.5184 8.36358 12.5184C8.36358 12.5184 8.36358 12.5184 8.36358 12.5184C8.36358 12.5184 8.36357 12.5184 8.36357 12.5184C8.36357 12.5184 8.36357 12.5184 8.36357 12.5184C8.36357 12.5184 8.36357 12.5184 8.36357 12.5184C8.36357 12.5184 8.36357 12.5184 8.36357 12.5184C8.36357 12.5184 8.36357 12.5184 8.36357 12.5184C8.36357 12.5184 8.36357 12.5184 8.36357 12.5184C8.36357 12.5184 8.36357 12.5184 8.36357 12.5184C8.36357 12.5184 8.36357 12.5184 8.36357 12.5184C8.36357 12.5184 8.36357 12.5184 8.36357 12.5184C8.36356 12.5184 8.36356 12.5184 8.36356 12.5184C8.36356 12.5184 8.36356 12.5184 8.36356 12.5184C8.36356 12.5184 8.36356 12.5184 8.36356 12.5184C8.36356 12.5184 8.36356 12.5184 8.36356 12.5184C8.36356 12.5184 8.36356 12.5184 8.36356 12.5184C8.36356 12.5184 8.36356 12.5184 8.36356 12.5184C8.36356 12.5184 8.36356 12.5184 8.36356 12.5184C8.36356 12.5184 8.36356 12.5184 8.36356 12.5184C8.36356 12.5184 8.36355 12.5184 8.36355 12.5184C8.36355 12.5184 8.36355 12.5184 8.36355 12.5184C8.36355 12.5184 8.36355 12.5184 8.36355 12.5184C8.36355 12.5184 8.36355 12.5184 8.36355 12.5184C8.36355 12.5184 8.36355 12.5184 8.36355 12.5184C8.36355 12.5184 8.36355 12.5184 8.36355 12.5184C8.36355 12.5184 8.36355 12.5184 8.36355 12.5184C8.36355 12.5184 8.36355 12.5184 8.36355 12.5184C8.36355 12.5184 8.36355 12.5184 8.36355 12.5184C8.36354 12.5184 8.36354 12.5184 8.36354 12.5184C8.36354 12.5184 8.36354 12.5184 8.36354 12.5184C8.36354 12.5184 8.36354 12.5184 8.36354 12.5184C8.36354 12.5184 8.36354 12.5184 8.36354 12.5184C8.36354 12.5184 8.36354 12.5184 8.36354 12.5184C8.36354 12.5184 8.36354 12.5184 8.36354 12.5184C8.36354 12.5184 8.36354 12.5184 8.36354 12.5184C8.36354 12.5184 8.36354 12.5184 8.36354 12.5184C8.36354 12.5184 8.36354 12.5184 8.36353 12.5184C8.36353 12.5184 8.36353 12.5184 8.36353 12.5184C8.36353 12.5184 8.36353 12.5184 8.36353 12.5184C8.36353 12.5184 8.36353 12.5184 8.36353 12.5184C8.36353 12.5184 8.36353 12.5184 8.36353 12.5184C8.36353 12.5184 8.36353 12.5184 8.36353 12.5184C8.36353 12.5184 8.36353 12.5184 8.36353 12.5184C8.36353 12.5184 8.36353 12.5184 8.36353 12.5184C8.36353 12.5184 8.36353 12.5184 8.36353 12.5184C8.36353 12.5184 8.36352 12.5184 8.36352 12.5184C8.36352 12.5184 8.36352 12.5184 8.36352 12.5184C8.36352 12.5184 8.36352 12.5184 8.36352 12.5184C8.36352 12.5184 8.36352 12.5184 8.36352 12.5184C8.36352 12.5184 8.36352 12.5184 8.36352 12.5184C8.36352 12.5184 8.36352 12.5184 8.36352 12.5184C8.36352 12.5184 8.36352 12.5184 8.36352 12.5184C8.36352 12.5184 8.36352 12.5184 8.36352 12.5184C8.36352 12.5184 8.36352 12.5184 8.36352 12.5184C8.36351 12.5184 8.36351 12.5184 8.36351 12.5184C8.36351 12.5184 8.36351 12.5184 8.36351 12.5184C8.36351 12.5184 8.36351 12.5184 8.36351 12.5184C8.36351 12.5184 8.36351 12.5184 8.36351 12.5184C8.36351 12.5184 8.36351 12.5184 8.36351 12.5184C8.36351 12.5184 8.36351 12.5184 8.36351 12.5184C8.36351 12.5184 8.36351 12.5184 8.36351 12.5184C8.36351 12.5184 8.36351 12.5184 8.36351 12.5184C8.36351 12.5184 8.36351 12.5184 8.3635 12.5184C8.3635 12.5184 8.3635 12.5184 8.3635 12.5184C8.3635 12.5184 8.3635 12.5184 8.3635 12.5184C8.3635 12.5184 8.3635 12.5184 8.3635 12.5184C8.3635 12.5184 8.3635 12.5184 8.3635 12.5184C8.3635 12.5184 8.3635 12.5184 8.3635 12.5184C8.3635 12.5184 8.3635 12.5184 8.3635 12.5184C8.3635 12.5184 8.3635 12.5184 8.3635 12.5184C8.3635 12.5184 8.3635 12.5184 8.3635 12.5184C8.3635 12.5184 8.36349 12.5184 8.36349 12.5184C8.36349 12.5184 8.36349 12.5184 8.36349 12.5184C8.36349 12.5184 8.36349 12.5184 8.36349 12.5184C8.36349 12.5184 8.36349 12.5184 8.36349 12.5184C8.36349 12.5184 8.36349 12.5184 8.36349 12.5184C8.36349 12.5184 8.36349 12.5184 8.36349 12.5184C8.36349 12.5184 8.36349 12.5184 8.36349 12.5184C8.36349 12.5184 8.36349 12.5184 8.36349 12.5184C8.36349 12.5184 8.36349 12.5184 8.36349 12.5184C8.36348 12.5184 8.36348 12.5184 8.36348 12.5184C8.36348 12.5184 8.36348 12.5184 8.36348 12.5184C8.36348 12.5184 8.36348 12.5184 8.36348 12.5184C8.36348 12.5184 8.36348 12.5184 8.36348 12.5184C8.36348 12.5184 8.36348 12.5184 8.36348 12.5184C8.36348 12.5184 8.36348 12.5184 8.36348 12.5184C8.36348 12.5184 8.36348 12.5184 8.36348 12.5184C8.36348 12.5184 8.36348 12.5184 8.36348 12.5184C8.36348 12.5184 8.36348 12.5184 8.36347 12.5184C8.36347 12.5184 8.36347 12.5184 8.36347 12.5184C8.36347 12.5184 8.36347 12.5184 8.36347 12.5184C8.36347 12.5184 8.36347 12.5184 8.36347 12.5184C8.36347 12.5184 8.36347 12.5184 8.36347 12.5184C8.36347 12.5184 8.36347 12.5184 8.36347 12.5184C8.36347 12.5184 8.36347 12.5184 8.36347 12.5184C8.36347 12.5184 8.36347 12.5184 8.36347 12.5184C8.36347 12.5184 8.36347 12.5184 8.36347 12.5184C8.36347 12.5184 8.36346 12.5184 8.36346 12.5184C8.36346 12.5184 8.36346 12.5184 8.36346 12.5184C8.36346 12.5184 8.36346 12.5184 8.36346 12.5184C8.36346 12.5184 8.36346 12.5184 8.36346 12.5184C8.36346 12.5184 8.36346 12.5184 8.36346 12.5184C8.36346 12.5184 8.36346 12.5184 8.36346 12.5184C8.36346 12.5184 8.36346 12.5184 8.36346 12.5184C8.36346 12.5184 8.36346 12.5184 8.36346 12.5184C8.36346 12.5184 8.36346 12.5184 8.36346 12.5184C8.36345 12.5184 8.36345 12.5184 8.36345 12.5184C8.36345 12.5184 8.36345 12.5184 8.36345 12.5184C8.36345 12.5184 8.36345 12.5184 8.36345 12.5184C8.36345 12.5184 8.36345 12.5184 8.36345 12.5184C8.36345 12.5184 8.36345 12.5184 8.36345 12.5184C8.36345 12.5184 8.36345 12.5184 8.36345 12.5184C8.36345 12.5184 8.36345 12.5184 8.36345 12.5184C8.36345 12.5184 8.36345 12.5184 8.36345 12.5184C8.36345 12.5184 8.36344 12.5184 8.36344 12.5184C8.36344 12.5184 8.36344 12.5184 8.36344 12.5184C8.36344 12.5184 8.36344 12.5184 8.36344 12.5184C8.36344 12.5184 8.36344 12.5184 8.36344 12.5184C8.36344 12.5184 8.36344 12.5184 8.36344 12.5184C8.36344 12.5184 8.36344 12.5184 8.36344 12.5184C8.36344 12.5184 8.36344 12.5184 8.36344 12.5184C8.36344 12.5184 8.36344 12.5184 8.36344 12.5184C8.36344 12.5184 8.36344 12.5184 8.36344 12.5184C8.36343 12.5184 8.36343 12.5184 8.36343 12.5184C8.36343 12.5184 8.36343 12.5184 8.36343 12.5184C8.36343 12.5184 8.36343 12.5184 8.36343 12.5184C8.36343 12.5184 8.36343 12.5184 8.36343 12.5184C8.36343 12.5184 8.36343 12.5184 8.36343 12.5184C8.36343 12.5184 8.36343 12.5184 8.36343 12.5184C8.36343 12.5184 8.36343 12.5184 8.36343 12.5184C8.36343 12.5184 8.36343 12.5184 8.36343 12.5184C8.36343 12.5184 8.36343 12.5184 8.36342 12.5184C8.36342 12.5184 8.36342 12.5184 8.36342 12.5184C8.36342 12.5184 8.36342 12.5184 8.36342 12.5184C8.36342 12.5184 8.36342 12.5184 8.36342 12.5184C8.36342 12.5184 8.36342 12.5184 8.36342 12.5184C8.36342 12.5184 8.36342 12.5184 8.36342 12.5184C8.36342 12.5184 8.36342 12.5184 8.36342 12.5184C8.36342 12.5184 8.36342 12.5184 8.36342 12.5184C8.36342 12.5184 8.36342 12.5184 8.36342 12.5184C8.36342 12.5184 8.36341 12.5184 8.36341 12.5184C8.36341 12.5184 8.36341 12.5184 8.36341 12.5184C8.36341 12.5184 8.36341 12.5184 8.36341 12.5184C8.36341 12.5184 8.36341 12.5184 8.36341 12.5184C8.36341 12.5184 8.36341 12.5184 8.36341 12.5184C8.36341 12.5184 8.36341 12.5184 8.36341 12.5184C8.36341 12.5184 8.36341 12.5184 8.36341 12.5184C8.36341 12.5184 8.36341 12.5184 8.36341 12.5184C8.36341 12.5184 8.36341 12.5184 8.36341 12.5184C8.3634 12.5184 8.3634 12.5184 8.3634 12.5184C8.3634 12.5184 8.3634 12.5184 8.3634 12.5184C8.3634 12.5184 8.3634 12.5184 8.3634 12.5184C8.3634 12.5184 8.3634 12.5184 8.3634 12.5184C8.3634 12.5184 8.3634 12.5184 8.3634 12.5184C8.3634 12.5184 8.3634 12.5184 8.3634 12.5184C8.3634 12.5184 8.3634 12.5184 8.3634 12.5184C8.3634 12.5184 8.3634 12.5184 8.3634 12.5184C8.3634 12.5184 8.3634 12.5184 8.36339 12.5184C8.36339 12.5184 8.36339 12.5184 8.36339 12.5184C8.36339 12.5184 8.36339 12.5184 8.36339 12.5184C8.36339 12.5184 8.36339 12.5184 8.36339 12.5184C8.36339 12.5184 8.36339 12.5184 8.36339 12.5184C8.36339 12.5184 8.36339 12.5184 8.36339 12.5184C8.36339 12.5184 8.36339 12.5184 8.36339 12.5184C8.36339 12.5184 8.36339 12.5184 8.36339 12.5184C8.36339 12.5184 8.36339 12.5184 8.36339 12.5184C8.36339 12.5184 8.36338 12.5184 8.36338 12.5184C8.36338 12.5184 8.36338 12.5184 8.36338 12.5184C8.36338 12.5184 8.36338 12.5184 8.36338 12.5184C8.36338 12.5184 8.36338 12.5184 8.36338 12.5184C8.36338 12.5184 8.36338 12.5184 8.36338 12.5184C8.36338 12.5184 8.36338 12.5184 8.36338 12.5184C8.36338 12.5184 8.36338 12.5184 8.36338 12.5184C8.36338 12.5184 8.36338 12.5184 8.36338 12.5184C8.36338 12.5184 8.36338 12.5184 8.36338 12.5184C8.36337 12.5184 8.36337 12.5184 8.36337 12.5184C8.36337 12.5184 8.36337 12.5184 8.36337 12.5184C8.36337 12.5184 8.36337 12.5184 8.36337 12.5184C8.36337 12.5184 8.36337 12.5184 8.36337 12.5184C8.36337 12.5184 8.36337 12.5184 8.36337 12.5184C8.36337 12.5184 8.36337 12.5184 8.36337 12.5184C8.36337 12.5184 8.36337 12.5184 8.36337 12.5184C8.36337 12.5184 8.36337 12.5184 8.36337 12.5184C8.36337 12.5184 8.36337 12.5184 8.36336 12.5184C8.36336 12.5184 8.36336 12.5184 8.36336 12.5184C8.36336 12.5184 8.36336 12.5184 8.36336 12.5184C8.36336 12.5184 8.36336 12.5184 8.36336 12.5184C8.36336 12.5184 8.36336 12.5184 8.36336 12.5184C8.36336 12.5184 8.36336 12.5184 8.36336 12.5184C8.36336 12.5184 8.36336 12.5184 8.36336 12.5184C8.36336 12.5184 8.36336 12.5184 8.36336 12.5184C8.36336 12.5184 8.36336 12.5184 8.36336 12.5184C8.36336 12.5184 8.36335 12.5184 8.36335 12.5184C8.36335 12.5184 8.36335 12.5184 8.36335 12.5184C8.36335 12.5184 8.36335 12.5184 8.36335 12.5184C8.36335 12.5184 8.36335 12.5184 8.36335 12.5184C8.36335 12.5184 8.36335 12.5184 8.36335 12.5184C8.36335 12.5184 8.36335 12.5184 8.36335 12.5184C8.36335 12.5184 8.36335 12.5184 8.36335 12.5184C8.36335 12.5184 8.36335 12.5184 8.36335 12.5184C8.36335 12.5184 8.36335 12.5184 8.36335 12.5184C8.36334 12.5184 8.36334 12.5184 8.36334 12.5184C8.36334 12.5184 8.36334 12.5184 8.36334 12.5184C8.36334 12.5184 8.36334 12.5184 8.36334 12.5184C8.36334 12.5184 8.36334 12.5184 8.36334 12.5184C8.36334 12.5184 8.36334 12.5184 8.36334 12.5184C8.36334 12.5184 8.36334 12.5184 8.36334 12.5184C8.36334 12.5184 8.36334 12.5184 8.36334 12.5184C8.36334 12.5184 8.36334 12.5184 8.36334 12.5184C8.36334 12.5184 8.36333 12.5184 8.36333 12.5184C8.36333 12.5184 8.36333 12.5184 8.36333 12.5184C8.36333 12.5184 8.36333 12.5184 8.36333 12.5184C8.36333 12.5184 8.36333 12.5184 8.36333 12.5184C8.36333 12.5184 8.36333 12.5184 8.36333 12.5184C8.36333 12.5184 8.36333 12.5184 8.36333 12.5184C8.36333 12.5184 8.36333 12.5184 8.36333 12.5184C8.36333 12.5184 8.36333 12.5184 8.36333 12.5184C8.36333 12.5184 8.36333 12.5184 8.36333 12.5184C8.36332 12.5184 8.36332 12.5184 8.36332 12.5184C8.36332 12.5184 8.36332 12.5184 8.36332 12.5184C8.36332 12.5184 8.36332 12.5184 8.36332 12.5184C8.36332 12.5184 8.36332 12.5184 8.36332 12.5184C8.36332 12.5184 8.36332 12.5184 8.36332 12.5184C8.36332 12.5184 8.36332 12.5184 8.36332 12.5184C8.36332 12.5184 8.36332 12.5184 8.36332 12.5184C8.36332 12.5184 8.36332 12.5184 8.36332 12.5184C8.36332 12.5184 8.36332 12.5184 8.36331 12.5184C8.36331 12.5184 8.36331 12.5184 8.36331 12.5184C8.36331 12.5184 8.36331 12.5184 8.36331 12.5184C8.36331 12.5184 8.36331 12.5184 8.36331 12.5184C8.36331 12.5184 8.36331 12.5184 8.36331 12.5184C8.36331 12.5184 8.36331 12.5184 8.36331 12.5184C8.36331 12.5184 8.36331 12.5184 8.36331 12.5184C8.36331 12.5184 8.36331 12.5184 8.36331 12.5184C8.36331 12.5184 8.36331 12.5184 8.36331 12.5184C8.36331 12.5184 8.3633 12.5184 8.3633 12.5184C8.3633 12.5184 8.3633 12.5184 8.3633 12.5184C8.3633 12.5184 8.3633 12.5184 8.3633 12.5184C8.3633 12.5184 8.3633 12.5184 8.3633 12.5184C8.3633 12.5184 8.3633 12.5184 8.3633 12.5184C8.3633 12.5184 8.3633 12.5184 8.3633 12.5184C8.3633 12.5184 8.3633 12.5184 8.3633 12.5184C8.3633 12.5184 8.3633 12.5184 8.3633 12.5184C8.3633 12.5184 8.3633 12.5184 8.3633 12.5184C8.36329 12.5184 8.36329 12.5184 8.36329 12.5184C8.36329 12.5184 8.36329 12.5184 8.36329 12.5184C8.36329 12.5184 8.36329 12.5184 8.36329 12.5184C8.36329 12.5184 8.36329 12.5184 8.36329 12.5184C8.36329 12.5184 8.36329 12.5184 8.36329 12.5184C8.36329 12.5184 8.36329 12.5184 8.36329 12.5184C8.36329 12.5184 8.36329 12.5184 8.36329 12.5184C8.36329 12.5184 8.36329 12.5184 8.36329 12.5184C8.36329 12.5184 8.36329 12.5184 8.36328 12.5184C8.36328 12.5184 8.36328 12.5184 8.36328 12.5184C8.36328 12.5184 8.36328 12.5184 8.36328 12.5184C8.36328 12.5184 8.36328 12.5184 8.36328 12.5184C8.36328 12.5184 8.36328 12.5184 8.36328 12.5184C8.36328 12.5184 8.36328 12.5184 8.36328 12.5184C8.36328 12.5184 8.36328 12.5184 8.36328 12.5184C8.36328 12.5184 8.36328 12.5184 8.36328 12.5184C8.36328 12.5184 8.36328 12.5184 8.36328 12.5184C8.36328 12.5184 8.36327 12.5184 8.36327 12.5184C8.36327 12.5184 8.36327 12.5184 8.36327 12.5184C8.36327 12.5184 8.36327 12.5184 8.36327 12.5184C8.36327 12.5184 8.36327 12.5184 8.36327 12.5184C8.36327 12.5184 8.36327 12.5184 8.36327 12.5184C8.36327 12.5184 8.36327 12.5184 8.36327 12.5184C8.36327 12.5184 8.36327 12.5184 8.36327 12.5184C8.36327 12.5184 8.36327 12.5183 8.36327 12.5183C8.36327 12.5183 8.36327 12.5183 8.36327 12.5183C8.36326 12.5183 8.36326 12.5183 8.36326 12.5183C8.36326 12.5183 8.36326 12.5183 8.36326 12.5183C8.36326 12.5183 8.36326 12.5183 8.36326 12.5183C8.36326 12.5183 8.36326 12.5183 8.36326 12.5183C8.36326 12.5183 8.36326 12.5183 8.36326 12.5183C8.36326 12.5183 8.36326 12.5183 8.36326 12.5183C8.36326 12.5183 8.36326 12.5183 8.36326 12.5183C8.36326 12.5183 8.36326 12.5183 8.36326 12.5183C8.36326 12.5183 8.36326 12.5183 8.36325 12.5183C8.36325 12.5183 8.36325 12.5183 8.36325 12.5183C8.36325 12.5183 8.36325 12.5183 8.36325 12.5183C8.36325 12.5183 8.36325 12.5183 8.36325 12.5183C8.36325 12.5183 8.36325 12.5183 8.36325 12.5183C8.36325 12.5183 8.36325 12.5183 8.36325 12.5183C8.36325 12.5183 8.36325 12.5183 8.36325 12.5183C8.36325 12.5183 8.36325 12.5183 8.36325 12.5183C8.36325 12.5183 8.36325 12.5183 8.36325 12.5183C8.36325 12.5183 8.36324 12.5183 8.36324 12.5183C8.36324 12.5183 8.36324 12.5183 8.36324 12.5183C8.36324 12.5183 8.36324 12.5183 8.36324 12.5183C8.36324 12.5183 8.36324 12.5183 8.36324 12.5183C8.36324 12.5183 8.36324 12.5183 8.36324 12.5183C8.36324 12.5183 8.36324 12.5183 8.36324 12.5183C8.36324 12.5183 8.36324 12.5183 8.36324 12.5183C8.36324 12.5183 8.36324 12.5183 8.36324 12.5183C8.36324 12.5183 8.36323 12.5183 8.36323 12.5183C8.36323 12.5183 8.36323 12.5183 8.36323 12.5183C8.36323 12.5183 8.36323 12.5183 8.36323 12.5183C8.36323 12.5183 8.36323 12.5183 8.36323 12.5183C8.36323 12.5183 8.36323 12.5183 8.36323 12.5183C8.36323 12.5183 8.36323 12.5183 8.36323 12.5183C8.36323 12.5183 8.36323 12.5183 8.36323 12.5183C8.36323 12.5183 8.36323 12.5183 8.36323 12.5183C8.36323 12.5183 8.36323 12.5183 8.36323 12.5183C8.36322 12.5183 8.36322 12.5183 8.36322 12.5183C8.36322 12.5183 8.36322 12.5183 8.36322 12.5183C8.36322 12.5183 8.36322 12.5183 8.36322 12.5183C8.36322 12.5183 8.36322 12.5183 8.36322 12.5183C8.36322 12.5183 8.36322 12.5183 8.36322 12.5183C8.36322 12.5183 8.36322 12.5183 8.36322 12.5183C8.36322 12.5183 8.36322 12.5183 8.36322 12.5183C8.36322 12.5183 8.36322 12.5183 8.36322 12.5183C8.36322 12.5183 8.36322 12.5183 8.36321 12.5183C8.36321 12.5183 8.36321 12.5183 8.36321 12.5183C8.36321 12.5183 8.36321 12.5183 8.36321 12.5183C8.36321 12.5183 8.36321 12.5183 8.36321 12.5183C8.36321 12.5183 8.36321 12.5183 8.36321 12.5183C8.36321 12.5183 8.36321 12.5183 8.36321 12.5183C8.36321 12.5183 8.36321 12.5183 8.36321 12.5183C8.36321 12.5183 8.36321 12.5183 8.36321 12.5183C8.36321 12.5183 8.36321 12.5183 8.36321 12.5183C8.36321 12.5183 8.3632 12.5183 8.3632 12.5183C8.3632 12.5183 8.3632 12.5183 8.3632 12.5183C8.3632 12.5183 8.3632 12.5183 8.3632 12.5183C8.3632 12.5183 8.3632 12.5183 8.3632 12.5183C8.3632 12.5183 8.3632 12.5183 8.3632 12.5183C8.3632 12.5183 8.3632 12.5183 8.3632 12.5183C8.3632 12.5183 8.3632 12.5183 8.3632 12.5183C8.3632 12.5183 8.3632 12.5183 8.3632 12.5183C8.3632 12.5183 8.3632 12.5183 8.3632 12.5183C8.36319 12.5183 8.36319 12.5183 8.36319 12.5183C8.36319 12.5183 8.36319 12.5183 8.36319 12.5183C8.36319 12.5183 8.36319 12.5183 8.36319 12.5183C8.36319 12.5183 8.36319 12.5183 8.36319 12.5183C8.36319 12.5183 8.36319 12.5183 8.36319 12.5183C8.36319 12.5183 8.36319 12.5183 8.36319 12.5183C8.36319 12.5183 8.36319 12.5183 8.36319 12.5183C8.36319 12.5183 8.36319 12.5183 8.36319 12.5183C8.36319 12.5183 8.36319 12.5183 8.36318 12.5183C8.36318 12.5183 8.36318 12.5183 8.36318 12.5183C8.36318 12.5183 8.36318 12.5183 8.36318 12.5183C8.36318 12.5183 8.36318 12.5183 8.36318 12.5183C8.36318 12.5183 8.36318 12.5183 8.36318 12.5183C8.36318 12.5183 8.36318 12.5183 8.36318 12.5183C8.36318 12.5183 8.36318 12.5183 8.36318 12.5183C8.36318 12.5183 8.36318 12.5183 8.36318 12.5183C8.36318 12.5183 8.36318 12.5183 8.36318 12.5183C8.36318 12.5183 8.36317 12.5183 8.36317 12.5183C8.36317 12.5183 8.36317 12.5183 8.36317 12.5183C8.36317 12.5183 8.36317 12.5183 8.36317 12.5183C8.36317 12.5183 8.36317 12.5183 8.36317 12.5183C8.36317 12.5183 8.36317 12.5183 8.36317 12.5183C8.36317 12.5183 8.36317 12.5183 8.36317 12.5183C8.36317 12.5183 8.36317 12.5183 8.36317 12.5183C8.36317 12.5183 8.36317 12.5183 8.36317 12.5183C8.36317 12.5183 8.36317 12.5183 8.36317 12.5183C8.36316 12.5183 8.36316 12.5183 8.36316 12.5183C8.36316 12.5183 8.36316 12.5183 8.36316 12.5183C8.36316 12.5183 8.36316 12.5183 8.36316 12.5183C8.36316 12.5183 8.36316 12.5183 8.36316 12.5183C8.36316 12.5183 8.36316 12.5183 8.36316 12.5183C8.36316 12.5183 8.36316 12.5183 8.36316 12.5183C8.36316 12.5183 8.36316 12.5183 8.36316 12.5183C8.36316 12.5183 8.36316 12.5183 8.36316 12.5183C8.36316 12.5183 8.36316 12.5183 8.36315 12.5183C8.36315 12.5183 8.36315 12.5183 8.36315 12.5183C8.36315 12.5183 8.36315 12.5183 8.36315 12.5183C8.36315 12.5183 8.36315 12.5183 8.36315 12.5183C8.36315 12.5183 8.36315 12.5183 8.36315 12.5183C8.36315 12.5183 8.36315 12.5183 8.36315 12.5183C8.36315 12.5183 8.36315 12.5183 8.36315 12.5183C8.36315 12.5183 8.36315 12.5183 8.36315 12.5183C8.36315 12.5183 8.36315 12.5183 8.36315 12.5183C8.36314 12.5183 8.36314 12.5183 8.36314 12.5183C8.36314 12.5183 8.36314 12.5183 8.36314 12.5183C8.36314 12.5183 8.36314 12.5183 8.36314 12.5183C8.36314 12.5183 8.36314 12.5183 8.36314 12.5183C8.36314 12.5183 8.36314 12.5183 8.36314 12.5183C8.36314 12.5183 8.36314 12.5183 8.36314 12.5183C8.36314 12.5183 8.36314 12.5183 8.36314 12.5183C8.36314 12.5183 8.36314 12.5183 8.36314 12.5183C8.36314 12.5183 8.36314 12.5183 8.36313 12.5183C8.36313 12.5183 8.36313 12.5183 8.36313 12.5183C8.36313 12.5183 8.36313 12.5183 8.36313 12.5183C8.36313 12.5183 8.36313 12.5183 8.36313 12.5183C8.36313 12.5183 8.36313 12.5183 8.36313 12.5183C8.36313 12.5183 8.36313 12.5183 8.36313 12.5183C8.36313 12.5183 8.36313 12.5183 8.36313 12.5183C8.36313 12.5183 8.36313 12.5183 8.36313 12.5183C8.36313 12.5183 8.36313 12.5183 8.36313 12.5183C8.36313 12.5183 8.36312 12.5183 8.36312 12.5183C8.36312 12.5183 8.36312 12.5183 8.36312 12.5183C8.36312 12.5183 8.36312 12.5183 8.36312 12.5183C8.36312 12.5183 8.36312 12.5183 8.36312 12.5183C8.36312 12.5183 8.36312 12.5183 8.36312 12.5183C8.36312 12.5183 8.36312 12.5183 8.36312 12.5183C8.36312 12.5183 8.36312 12.5183 8.36312 12.5183C8.36312 12.5183 8.36312 12.5183 8.36312 12.5183C8.36312 12.5183 8.36312 12.5183 8.36312 12.5183C8.36311 12.5183 8.36311 12.5183 8.36311 12.5183C8.36311 12.5183 8.36311 12.5183 8.36311 12.5183C8.36311 12.5183 8.36311 12.5183 8.36311 12.5183C8.36311 12.5183 8.36311 12.5183 8.36311 12.5183C8.36311 12.5183 8.36311 12.5183 8.36311 12.5183C8.36311 12.5183 8.36311 12.5183 8.36311 12.5183C8.36311 12.5183 8.36311 12.5183 8.36311 12.5183C8.36311 12.5183 8.36311 12.5183 8.36311 12.5183C8.36311 12.5183 8.36311 12.5183 8.3631 12.5183C8.3631 12.5183 8.3631 12.5183 8.3631 12.5183C8.3631 12.5183 8.3631 12.5183 8.3631 12.5183C8.3631 12.5183 8.3631 12.5183 8.3631 12.5183C8.3631 12.5183 8.3631 12.5183 8.3631 12.5183C8.3631 12.5183 8.3631 12.5183 8.3631 12.5183C8.3631 12.5183 8.3631 12.5183 8.3631 12.5183C8.3631 12.5183 8.3631 12.5183 8.3631 12.5183C8.3631 12.5183 8.3631 12.5183 8.3631 12.5183C8.3631 12.5183 8.36309 12.5183 8.36309 12.5183C8.36309 12.5183 8.36309 12.5183 8.36309 12.5183C8.36309 12.5183 8.36309 12.5183 8.36309 12.5183C8.36309 12.5183 8.36309 12.5183 8.36309 12.5183C8.36309 12.5183 8.36309 12.5183 8.36309 12.5183C8.36309 12.5183 8.36309 12.5183 8.36309 12.5183C8.36309 12.5183 8.36309 12.5183 8.36309 12.5183C8.36309 12.5183 8.36309 12.5183 8.36309 12.5183C8.36309 12.5183 8.36309 12.5183 8.36309 12.5183C8.36308 12.5183 8.36308 12.5183 8.36308 12.5183C8.36308 12.5183 8.36308 12.5183 8.36308 12.5183C8.36308 12.5183 8.36308 12.5183 8.36308 12.5183C8.36308 12.5183 8.36308 12.5183 8.36308 12.5183C8.36308 12.5183 8.36308 12.5183 8.36308 12.5183C8.36308 12.5183 8.36308 12.5183 8.36308 12.5183C8.36308 12.5183 8.36308 12.5183 8.36308 12.5183C8.36308 12.5183 8.36308 12.5183 8.36308 12.5183C8.36308 12.5183 8.36308 12.5183 8.36307 12.5183C8.36307 12.5183 8.36307 12.5183 8.36307 12.5183C8.36307 12.5183 8.36307 12.5183 8.36307 12.5183C8.36307 12.5183 8.36307 12.5183 8.36307 12.5183C8.36307 12.5183 8.36307 12.5183 8.36307 12.5183C8.36307 12.5183 8.36307 12.5183 8.36307 12.5183C8.36307 12.5183 8.36307 12.5183 8.36307 12.5183C8.36307 12.5183 8.36307 12.5183 8.36307 12.5183C8.36307 12.5183 8.36307 12.5183 8.36307 12.5183C8.36307 12.5183 8.36306 12.5183 8.36306 12.5183C8.36306 12.5183 8.36306 12.5183 8.36306 12.5183C8.36306 12.5183 8.36306 12.5183 8.36306 12.5183C8.36306 12.5183 8.36306 12.5183 8.36306 12.5183C8.36306 12.5183 8.36306 12.5183 8.36306 12.5183C8.36306 12.5183 8.36306 12.5183 8.36306 12.5183C8.36306 12.5183 8.36306 12.5183 8.36306 12.5183C8.36306 12.5183 8.36306 12.5183 8.36306 12.5183C8.36306 12.5183 8.36306 12.5183 8.36306 12.5183C8.36305 12.5183 8.36305 12.5183 8.36305 12.5183C8.36305 12.5183 8.36305 12.5183 8.36305 12.5183C8.36305 12.5183 8.36305 12.5183 8.36305 12.5183C8.36305 12.5183 8.36305 12.5183 8.36305 12.5183C8.36305 12.5183 8.36305 12.5183 8.36305 12.5183C8.36305 12.5183 8.36305 12.5183 8.36305 12.5183C8.36305 12.5183 8.36305 12.5183 8.36305 12.5183C8.36305 12.5183 8.36305 12.5183 8.36305 12.5183C8.36305 12.5183 8.36305 12.5183 8.36304 12.5183C8.36304 12.5183 8.36304 12.5183 8.36304 12.5183C8.36304 12.5183 8.36304 12.5183 8.36304 12.5183C8.36304 12.5183 8.36304 12.5183 8.36304 12.5183C8.36304 12.5183 8.36304 12.5183 8.36304 12.5183C8.36304 12.5183 8.36304 12.5183 8.36304 12.5183C8.36304 12.5183 8.36304 12.5183 8.36304 12.5183C8.36304 12.5183 8.36304 12.5183 8.36304 12.5183C8.36304 12.5183 8.36304 12.5183 8.36304 12.5183C8.36303 12.5183 8.36303 12.5183 8.36303 12.5183C8.36303 12.5183 8.36303 12.5183 8.36303 12.5183C8.36303 12.5183 8.36303 12.5183 8.36303 12.5183C8.36303 12.5183 8.36303 12.5183 8.36303 12.5183C8.36303 12.5183 8.36303 12.5183 8.36303 12.5183C8.36303 12.5183 8.36303 12.5183 8.36303 12.5183C8.36303 12.5183 8.36303 12.5183 8.36303 12.5183C8.36303 12.5183 8.36303 12.5183 8.36303 12.5183C8.36303 12.5183 8.36303 12.5183 8.36302 12.5183C8.36302 12.5183 8.36302 12.5183 8.36302 12.5183C8.36302 12.5183 8.36302 12.5183 8.36302 12.5183C8.36302 12.5183 8.36302 12.5183 8.36302 12.5183C8.36302 12.5183 8.36302 12.5183 8.36302 12.5183C8.36302 12.5183 8.36302 12.5183 8.36302 12.5183C8.36302 12.5183 8.36302 12.5183 8.36302 12.5183C8.36302 12.5183 8.36302 12.5183 8.36302 12.5183C8.36302 12.5183 8.36302 12.5183 8.36302 12.5183C8.36302 12.5183 8.36301 12.5183 8.36301 12.5183C8.36301 12.5183 8.36301 12.5183 8.36301 12.5183C8.36301 12.5183 8.36301 12.5183 8.36301 12.5183C8.36301 12.5183 8.36301 12.5183 8.36301 12.5183C8.36301 12.5183 8.36301 12.5183 8.36301 12.5183C8.36301 12.5183 8.36301 12.5183 8.36301 12.5183C8.36301 12.5183 8.36301 12.5183 8.36301 12.5183C8.36301 12.5183 8.36301 12.5183 8.36301 12.5183C8.36301 12.5183 8.36301 12.5183 8.36301 12.5183C8.363 12.5183 8.363 12.5183 8.363 12.5183C8.363 12.5183 8.363 12.5183 8.363 12.5183C8.363 12.5183 8.363 12.5183 8.363 12.5183C8.363 12.5183 8.363 12.5183 8.363 12.5183C8.363 12.5183 8.363 12.5183 8.363 12.5183C8.363 12.5183 8.363 12.5183 8.363 12.5183C8.363 12.5183 8.363 12.5183 8.363 12.5183C8.363 12.5183 8.363 12.5183 8.363 12.5183C8.363 12.5183 8.363 12.5183 8.36299 12.5183C8.36299 12.5183 8.36299 12.5183 8.36299 12.5183C8.36299 12.5183 8.36299 12.5183 8.36299 12.5183C8.36299 12.5183 8.36299 12.5183 8.36299 12.5183C8.36299 12.5183 8.36299 12.5183 8.36299 12.5183C8.36299 12.5183 8.36299 12.5183 8.36299 12.5183C8.36299 12.5183 8.36299 12.5183 8.36299 12.5183C8.36299 12.5183 8.36299 12.5183 8.36299 12.5183L8.09379 13.4814C8.09379 13.4814 8.09379 13.4814 8.09379 13.4814C8.09379 13.4814 8.09379 13.4814 8.09379 13.4814C8.09379 13.4814 8.09379 13.4814 8.09379 13.4814C8.09379 13.4814 8.09379 13.4814 8.09379 13.4814C8.09379 13.4814 8.09379 13.4814 8.09379 13.4814C8.09379 13.4814 8.09379 13.4814 8.09379 13.4814C8.09379 13.4814 8.09379 13.4814 8.0938 13.4814C8.0938 13.4814 8.0938 13.4814 8.0938 13.4814C8.0938 13.4814 8.0938 13.4814 8.0938 13.4814C8.0938 13.4814 8.0938 13.4814 8.0938 13.4814C8.0938 13.4814 8.0938 13.4814 8.0938 13.4814C8.0938 13.4814 8.0938 13.4814 8.0938 13.4814C8.0938 13.4814 8.0938 13.4814 8.0938 13.4814C8.0938 13.4814 8.0938 13.4814 8.0938 13.4814C8.0938 13.4814 8.0938 13.4814 8.0938 13.4814C8.0938 13.4814 8.09381 13.4814 8.09381 13.4814C8.09381 13.4814 8.09381 13.4814 8.09381 13.4814C8.09381 13.4814 8.09381 13.4814 8.09381 13.4814C8.09381 13.4814 8.09381 13.4814 8.09381 13.4814C8.09381 13.4814 8.09381 13.4814 8.09381 13.4814C8.09381 13.4814 8.09381 13.4814 8.09381 13.4814C8.09381 13.4814 8.09381 13.4814 8.09381 13.4814C8.09381 13.4814 8.09381 13.4814 8.09381 13.4814C8.09381 13.4814 8.09381 13.4814 8.09381 13.4814C8.09382 13.4814 8.09382 13.4814 8.09382 13.4814C8.09382 13.4814 8.09382 13.4814 8.09382 13.4814C8.09382 13.4814 8.09382 13.4814 8.09382 13.4814C8.09382 13.4814 8.09382 13.4814 8.09382 13.4814C8.09382 13.4814 8.09382 13.4814 8.09382 13.4814C8.09382 13.4814 8.09382 13.4814 8.09382 13.4814C8.09382 13.4814 8.09382 13.4814 8.09382 13.4814C8.09382 13.4814 8.09382 13.4814 8.09382 13.4814C8.09382 13.4814 8.09382 13.4814 8.09383 13.4814C8.09383 13.4814 8.09383 13.4814 8.09383 13.4814C8.09383 13.4814 8.09383 13.4814 8.09383 13.4814C8.09383 13.4814 8.09383 13.4814 8.09383 13.4814C8.09383 13.4814 8.09383 13.4814 8.09383 13.4814C8.09383 13.4814 8.09383 13.4814 8.09383 13.4814C8.09383 13.4814 8.09383 13.4814 8.09383 13.4814C8.09383 13.4814 8.09383 13.4814 8.09383 13.4814C8.09383 13.4814 8.09383 13.4814 8.09383 13.4814C8.09383 13.4814 8.09384 13.4814 8.09384 13.4814C8.09384 13.4814 8.09384 13.4814 8.09384 13.4814C8.09384 13.4814 8.09384 13.4814 8.09384 13.4814C8.09384 13.4814 8.09384 13.4814 8.09384 13.4814C8.09384 13.4814 8.09384 13.4814 8.09384 13.4814C8.09384 13.4814 8.09384 13.4814 8.09384 13.4814C8.09384 13.4814 8.09384 13.4814 8.09384 13.4814C8.09384 13.4814 8.09384 13.4814 8.09384 13.4814C8.09384 13.4814 8.09384 13.4814 8.09384 13.4814C8.09385 13.4814 8.09385 13.4814 8.09385 13.4814C8.09385 13.4814 8.09385 13.4814 8.09385 13.4814C8.09385 13.4814 8.09385 13.4814 8.09385 13.4814C8.09385 13.4814 8.09385 13.4814 8.09385 13.4814C8.09385 13.4814 8.09385 13.4814 8.09385 13.4814C8.09385 13.4814 8.09385 13.4814 8.09385 13.4814C8.09385 13.4814 8.09385 13.4814 8.09385 13.4814C8.09385 13.4814 8.09385 13.4814 8.09385 13.4814C8.09385 13.4814 8.09386 13.4814 8.09386 13.4814C8.09386 13.4814 8.09386 13.4814 8.09386 13.4814C8.09386 13.4814 8.09386 13.4814 8.09386 13.4814C8.09386 13.4814 8.09386 13.4814 8.09386 13.4814C8.09386 13.4814 8.09386 13.4814 8.09386 13.4814C8.09386 13.4814 8.09386 13.4814 8.09386 13.4814C8.09386 13.4814 8.09386 13.4814 8.09386 13.4814C8.09386 13.4814 8.09386 13.4814 8.09386 13.4814C8.09386 13.4814 8.09386 13.4814 8.09386 13.4814C8.09387 13.4814 8.09387 13.4814 8.09387 13.4814C8.09387 13.4814 8.09387 13.4814 8.09387 13.4814C8.09387 13.4814 8.09387 13.4814 8.09387 13.4814C8.09387 13.4814 8.09387 13.4814 8.09387 13.4814C8.09387 13.4814 8.09387 13.4814 8.09387 13.4814C8.09387 13.4814 8.09387 13.4814 8.09387 13.4814C8.09387 13.4814 8.09387 13.4814 8.09387 13.4814C8.09387 13.4814 8.09387 13.4814 8.09387 13.4814C8.09387 13.4814 8.09387 13.4814 8.09388 13.4814C8.09388 13.4814 8.09388 13.4814 8.09388 13.4814C8.09388 13.4814 8.09388 13.4814 8.09388 13.4814C8.09388 13.4814 8.09388 13.4814 8.09388 13.4814C8.09388 13.4814 8.09388 13.4814 8.09388 13.4814C8.09388 13.4814 8.09388 13.4814 8.09388 13.4814C8.09388 13.4814 8.09388 13.4814 8.09388 13.4814C8.09388 13.4814 8.09388 13.4814 8.09388 13.4814C8.09388 13.4814 8.09388 13.4814 8.09388 13.4814C8.09388 13.4814 8.09389 13.4814 8.09389 13.4814C8.09389 13.4814 8.09389 13.4814 8.09389 13.4814C8.09389 13.4814 8.09389 13.4814 8.09389 13.4814C8.09389 13.4814 8.09389 13.4814 8.09389 13.4814C8.09389 13.4814 8.09389 13.4814 8.09389 13.4814C8.09389 13.4814 8.09389 13.4814 8.09389 13.4814C8.09389 13.4814 8.09389 13.4814 8.09389 13.4814C8.09389 13.4814 8.09389 13.4814 8.09389 13.4814C8.09389 13.4814 8.09389 13.4814 8.09389 13.4814C8.0939 13.4814 8.0939 13.4814 8.0939 13.4814C8.0939 13.4814 8.0939 13.4814 8.0939 13.4814C8.0939 13.4814 8.0939 13.4814 8.0939 13.4814C8.0939 13.4814 8.0939 13.4814 8.0939 13.4814C8.0939 13.4814 8.0939 13.4814 8.0939 13.4814C8.0939 13.4814 8.0939 13.4814 8.0939 13.4814C8.0939 13.4814 8.0939 13.4814 8.0939 13.4814C8.0939 13.4814 8.0939 13.4814 8.0939 13.4814C8.0939 13.4814 8.0939 13.4814 8.09391 13.4814C8.09391 13.4814 8.09391 13.4814 8.09391 13.4814C8.09391 13.4814 8.09391 13.4814 8.09391 13.4814C8.09391 13.4814 8.09391 13.4814 8.09391 13.4814C8.09391 13.4814 8.09391 13.4814 8.09391 13.4814C8.09391 13.4814 8.09391 13.4814 8.09391 13.4814C8.09391 13.4814 8.09391 13.4814 8.09391 13.4814C8.09391 13.4814 8.09391 13.4814 8.09391 13.4814C8.09391 13.4814 8.09391 13.4814 8.09391 13.4814C8.09391 13.4814 8.09392 13.4814 8.09392 13.4814C8.09392 13.4814 8.09392 13.4814 8.09392 13.4814C8.09392 13.4814 8.09392 13.4814 8.09392 13.4814C8.09392 13.4814 8.09392 13.4814 8.09392 13.4814C8.09392 13.4814 8.09392 13.4814 8.09392 13.4814C8.09392 13.4814 8.09392 13.4814 8.09392 13.4814C8.09392 13.4814 8.09392 13.4814 8.09392 13.4814C8.09392 13.4814 8.09392 13.4814 8.09392 13.4814C8.09392 13.4814 8.09392 13.4814 8.09392 13.4814C8.09393 13.4814 8.09393 13.4814 8.09393 13.4814C8.09393 13.4814 8.09393 13.4814 8.09393 13.4814C8.09393 13.4814 8.09393 13.4814 8.09393 13.4814C8.09393 13.4814 8.09393 13.4814 8.09393 13.4814C8.09393 13.4814 8.09393 13.4814 8.09393 13.4814C8.09393 13.4814 8.09393 13.4814 8.09393 13.4814C8.09393 13.4814 8.09393 13.4814 8.09393 13.4814C8.09393 13.4814 8.09393 13.4814 8.09393 13.4814C8.09393 13.4814 8.09394 13.4814 8.09394 13.4814C8.09394 13.4814 8.09394 13.4814 8.09394 13.4814C8.09394 13.4814 8.09394 13.4814 8.09394 13.4814C8.09394 13.4814 8.09394 13.4814 8.09394 13.4814C8.09394 13.4814 8.09394 13.4814 8.09394 13.4814C8.09394 13.4814 8.09394 13.4814 8.09394 13.4814C8.09394 13.4814 8.09394 13.4814 8.09394 13.4814C8.09394 13.4814 8.09394 13.4814 8.09394 13.4814C8.09394 13.4814 8.09394 13.4814 8.09395 13.4814C8.09395 13.4814 8.09395 13.4814 8.09395 13.4814C8.09395 13.4814 8.09395 13.4814 8.09395 13.4814C8.09395 13.4814 8.09395 13.4814 8.09395 13.4814C8.09395 13.4814 8.09395 13.4814 8.09395 13.4814C8.09395 13.4814 8.09395 13.4814 8.09395 13.4814C8.09395 13.4814 8.09395 13.4814 8.09395 13.4814C8.09395 13.4814 8.09395 13.4814 8.09395 13.4814C8.09395 13.4814 8.09395 13.4814 8.09395 13.4814C8.09395 13.4814 8.09396 13.4814 8.09396 13.4814C8.09396 13.4814 8.09396 13.4814 8.09396 13.4814C8.09396 13.4814 8.09396 13.4814 8.09396 13.4814C8.09396 13.4814 8.09396 13.4814 8.09396 13.4814C8.09396 13.4814 8.09396 13.4814 8.09396 13.4814C8.09396 13.4814 8.09396 13.4814 8.09396 13.4814C8.09396 13.4814 8.09396 13.4814 8.09396 13.4814C8.09396 13.4814 8.09396 13.4814 8.09396 13.4814C8.09396 13.4814 8.09396 13.4814 8.09396 13.4814C8.09397 13.4814 8.09397 13.4814 8.09397 13.4814C8.09397 13.4814 8.09397 13.4814 8.09397 13.4814C8.09397 13.4814 8.09397 13.4814 8.09397 13.4814C8.09397 13.4814 8.09397 13.4814 8.09397 13.4814C8.09397 13.4814 8.09397 13.4814 8.09397 13.4814C8.09397 13.4814 8.09397 13.4814 8.09397 13.4814C8.09397 13.4814 8.09397 13.4814 8.09397 13.4814C8.09397 13.4814 8.09397 13.4814 8.09397 13.4814C8.09397 13.4814 8.09397 13.4814 8.09398 13.4814C8.09398 13.4814 8.09398 13.4814 8.09398 13.4814C8.09398 13.4814 8.09398 13.4814 8.09398 13.4814C8.09398 13.4814 8.09398 13.4814 8.09398 13.4814C8.09398 13.4814 8.09398 13.4814 8.09398 13.4814C8.09398 13.4814 8.09398 13.4814 8.09398 13.4814C8.09398 13.4814 8.09398 13.4814 8.09398 13.4814C8.09398 13.4814 8.09398 13.4814 8.09398 13.4814C8.09398 13.4814 8.09398 13.4814 8.09398 13.4814C8.09398 13.4814 8.09399 13.4814 8.09399 13.4814C8.09399 13.4814 8.09399 13.4814 8.09399 13.4814C8.09399 13.4814 8.09399 13.4814 8.09399 13.4814C8.09399 13.4814 8.09399 13.4814 8.09399 13.4814C8.09399 13.4814 8.09399 13.4814 8.09399 13.4814C8.09399 13.4814 8.09399 13.4814 8.09399 13.4814C8.09399 13.4814 8.09399 13.4814 8.09399 13.4814C8.09399 13.4814 8.09399 13.4814 8.09399 13.4814C8.09399 13.4814 8.09399 13.4814 8.09399 13.4814C8.094 13.4814 8.094 13.4814 8.094 13.4814C8.094 13.4814 8.094 13.4814 8.094 13.4814C8.094 13.4814 8.094 13.4814 8.094 13.4814C8.094 13.4814 8.094 13.4814 8.094 13.4814C8.094 13.4814 8.094 13.4814 8.094 13.4814C8.094 13.4814 8.094 13.4814 8.094 13.4814C8.094 13.4814 8.094 13.4814 8.094 13.4814C8.094 13.4814 8.094 13.4814 8.094 13.4814C8.094 13.4814 8.094 13.4814 8.09401 13.4814C8.09401 13.4814 8.09401 13.4814 8.09401 13.4814C8.09401 13.4814 8.09401 13.4814 8.09401 13.4814C8.09401 13.4814 8.09401 13.4814 8.09401 13.4814C8.09401 13.4814 8.09401 13.4814 8.09401 13.4814C8.09401 13.4814 8.09401 13.4814 8.09401 13.4814C8.09401 13.4814 8.09401 13.4814 8.09401 13.4814C8.09401 13.4814 8.09401 13.4814 8.09401 13.4814C8.09401 13.4814 8.09401 13.4814 8.09401 13.4814C8.09401 13.4814 8.09402 13.4814 8.09402 13.4814C8.09402 13.4814 8.09402 13.4814 8.09402 13.4814C8.09402 13.4814 8.09402 13.4814 8.09402 13.4814C8.09402 13.4814 8.09402 13.4814 8.09402 13.4814C8.09402 13.4814 8.09402 13.4814 8.09402 13.4814C8.09402 13.4814 8.09402 13.4814 8.09402 13.4814C8.09402 13.4814 8.09402 13.4814 8.09402 13.4814C8.09402 13.4814 8.09402 13.4814 8.09402 13.4814C8.09402 13.4814 8.09402 13.4814 8.09402 13.4814C8.09403 13.4814 8.09403 13.4814 8.09403 13.4814C8.09403 13.4814 8.09403 13.4814 8.09403 13.4814C8.09403 13.4814 8.09403 13.4814 8.09403 13.4814C8.09403 13.4814 8.09403 13.4814 8.09403 13.4814C8.09403 13.4814 8.09403 13.4814 8.09403 13.4814C8.09403 13.4814 8.09403 13.4814 8.09403 13.4814C8.09403 13.4814 8.09403 13.4814 8.09403 13.4814C8.09403 13.4814 8.09403 13.4814 8.09403 13.4814C8.09403 13.4814 8.09403 13.4814 8.09404 13.4814C8.09404 13.4814 8.09404 13.4814 8.09404 13.4814C8.09404 13.4814 8.09404 13.4814 8.09404 13.4814C8.09404 13.4814 8.09404 13.4814 8.09404 13.4814C8.09404 13.4814 8.09404 13.4814 8.09404 13.4814C8.09404 13.4814 8.09404 13.4814 8.09404 13.4814C8.09404 13.4814 8.09404 13.4814 8.09404 13.4814C8.09404 13.4814 8.09404 13.4814 8.09404 13.4814C8.09404 13.4814 8.09404 13.4814 8.09404 13.4814C8.09404 13.4814 8.09405 13.4814 8.09405 13.4814C8.09405 13.4814 8.09405 13.4814 8.09405 13.4814C8.09405 13.4814 8.09405 13.4814 8.09405 13.4814C8.09405 13.4814 8.09405 13.4814 8.09405 13.4814C8.09405 13.4814 8.09405 13.4814 8.09405 13.4814C8.09405 13.4814 8.09405 13.4814 8.09405 13.4814C8.09405 13.4814 8.09405 13.4814 8.09405 13.4814C8.09405 13.4814 8.09405 13.4814 8.09405 13.4814C8.09405 13.4814 8.09405 13.4814 8.09406 13.4814C8.09406 13.4814 8.09406 13.4814 8.09406 13.4814C8.09406 13.4814 8.09406 13.4814 8.09406 13.4814C8.09406 13.4814 8.09406 13.4814 8.09406 13.4814C8.09406 13.4814 8.09406 13.4814 8.09406 13.4814C8.09406 13.4814 8.09406 13.4814 8.09406 13.4814C8.09406 13.4814 8.09406 13.4814 8.09406 13.4814C8.09406 13.4814 8.09406 13.4814 8.09406 13.4814C8.09406 13.4814 8.09406 13.4814 8.09406 13.4814C8.09406 13.4814 8.09407 13.4814 8.09407 13.4814C8.09407 13.4814 8.09407 13.4814 8.09407 13.4814C8.09407 13.4814 8.09407 13.4814 8.09407 13.4814C8.09407 13.4814 8.09407 13.4814 8.09407 13.4814C8.09407 13.4814 8.09407 13.4814 8.09407 13.4814C8.09407 13.4814 8.09407 13.4814 8.09407 13.4814C8.09407 13.4814 8.09407 13.4814 8.09407 13.4814C8.09407 13.4814 8.09407 13.4814 8.09407 13.4814C8.09407 13.4814 8.09407 13.4814 8.09407 13.4814C8.09408 13.4814 8.09408 13.4814 8.09408 13.4814C8.09408 13.4814 8.09408 13.4814 8.09408 13.4814C8.09408 13.4814 8.09408 13.4814 8.09408 13.4814C8.09408 13.4814 8.09408 13.4814 8.09408 13.4814C8.09408 13.4814 8.09408 13.4814 8.09408 13.4814C8.09408 13.4814 8.09408 13.4814 8.09408 13.4814C8.09408 13.4814 8.09408 13.4814 8.09408 13.4814C8.09408 13.4814 8.09408 13.4814 8.09408 13.4814C8.09408 13.4814 8.09408 13.4814 8.09409 13.4814C8.09409 13.4814 8.09409 13.4814 8.09409 13.4814C8.09409 13.4814 8.09409 13.4814 8.09409 13.4814C8.09409 13.4814 8.09409 13.4814 8.09409 13.4814C8.09409 13.4814 8.09409 13.4814 8.09409 13.4814C8.09409 13.4814 8.09409 13.4814 8.09409 13.4814C8.09409 13.4814 8.09409 13.4814 8.09409 13.4814C8.09409 13.4814 8.09409 13.4814 8.09409 13.4814C8.09409 13.4814 8.09409 13.4814 8.09409 13.4814C8.09409 13.4814 8.0941 13.4814 8.0941 13.4814C8.0941 13.4814 8.0941 13.4814 8.0941 13.4814C8.0941 13.4814 8.0941 13.4814 8.0941 13.4814C8.0941 13.4814 8.0941 13.4814 8.0941 13.4814C8.0941 13.4814 8.0941 13.4814 8.0941 13.4814C8.0941 13.4814 8.0941 13.4814 8.0941 13.4814C8.0941 13.4814 8.0941 13.4814 8.0941 13.4814C8.0941 13.4814 8.0941 13.4814 8.0941 13.4814C8.0941 13.4814 8.0941 13.4814 8.0941 13.4814C8.09411 13.4814 8.09411 13.4814 8.09411 13.4814C8.09411 13.4814 8.09411 13.4814 8.09411 13.4814C8.09411 13.4814 8.09411 13.4814 8.09411 13.4814C8.09411 13.4814 8.09411 13.4814 8.09411 13.4814C8.09411 13.4814 8.09411 13.4814 8.09411 13.4814C8.09411 13.4814 8.09411 13.4814 8.09411 13.4814C8.09411 13.4814 8.09411 13.4814 8.09411 13.4814C8.09411 13.4814 8.09411 13.4814 8.09411 13.4814C8.09411 13.4814 8.09411 13.4814 8.09412 13.4814C8.09412 13.4814 8.09412 13.4814 8.09412 13.4814C8.09412 13.4814 8.09412 13.4814 8.09412 13.4814C8.09412 13.4814 8.09412 13.4814 8.09412 13.4814C8.09412 13.4814 8.09412 13.4814 8.09412 13.4814C8.09412 13.4814 8.09412 13.4814 8.09412 13.4814C8.09412 13.4815 8.09412 13.4815 8.09412 13.4815C8.09412 13.4815 8.09412 13.4815 8.09412 13.4815C8.09412 13.4815 8.09412 13.4815 8.09412 13.4815C8.09412 13.4815 8.09413 13.4815 8.09413 13.4815C8.09413 13.4815 8.09413 13.4815 8.09413 13.4815C8.09413 13.4815 8.09413 13.4815 8.09413 13.4815C8.09413 13.4815 8.09413 13.4815 8.09413 13.4815C8.09413 13.4815 8.09413 13.4815 8.09413 13.4815C8.09413 13.4815 8.09413 13.4815 8.09413 13.4815C8.09413 13.4815 8.09413 13.4815 8.09413 13.4815C8.09413 13.4815 8.09413 13.4815 8.09413 13.4815C8.09413 13.4815 8.09413 13.4815 8.09413 13.4815C8.09414 13.4815 8.09414 13.4815 8.09414 13.4815C8.09414 13.4815 8.09414 13.4815 8.09414 13.4815C8.09414 13.4815 8.09414 13.4815 8.09414 13.4815C8.09414 13.4815 8.09414 13.4815 8.09414 13.4815C8.09414 13.4815 8.09414 13.4815 8.09414 13.4815C8.09414 13.4815 8.09414 13.4815 8.09414 13.4815C8.09414 13.4815 8.09414 13.4815 8.09414 13.4815C8.09414 13.4815 8.09414 13.4815 8.09414 13.4815C8.09414 13.4815 8.09414 13.4815 8.09415 13.4815C8.09415 13.4815 8.09415 13.4815 8.09415 13.4815C8.09415 13.4815 8.09415 13.4815 8.09415 13.4815C8.09415 13.4815 8.09415 13.4815 8.09415 13.4815C8.09415 13.4815 8.09415 13.4815 8.09415 13.4815C8.09415 13.4815 8.09415 13.4815 8.09415 13.4815C8.09415 13.4815 8.09415 13.4815 8.09415 13.4815C8.09415 13.4815 8.09415 13.4815 8.09415 13.4815C8.09415 13.4815 8.09415 13.4815 8.09415 13.4815C8.09416 13.4815 8.09416 13.4815 8.09416 13.4815C8.09416 13.4815 8.09416 13.4815 8.09416 13.4815C8.09416 13.4815 8.09416 13.4815 8.09416 13.4815C8.09416 13.4815 8.09416 13.4815 8.09416 13.4815C8.09416 13.4815 8.09416 13.4815 8.09416 13.4815C8.09416 13.4815 8.09416 13.4815 8.09416 13.4815C8.09416 13.4815 8.09416 13.4815 8.09416 13.4815C8.09416 13.4815 8.09416 13.4815 8.09416 13.4815C8.09416 13.4815 8.09416 13.4815 8.09417 13.4815C8.09417 13.4815 8.09417 13.4815 8.09417 13.4815C8.09417 13.4815 8.09417 13.4815 8.09417 13.4815C8.09417 13.4815 8.09417 13.4815 8.09417 13.4815C8.09417 13.4815 8.09417 13.4815 8.09417 13.4815C8.09417 13.4815 8.09417 13.4815 8.09417 13.4815C8.09417 13.4815 8.09417 13.4815 8.09417 13.4815C8.09417 13.4815 8.09417 13.4815 8.09417 13.4815C8.09417 13.4815 8.09417 13.4815 8.09417 13.4815C8.09417 13.4815 8.09418 13.4815 8.09418 13.4815C8.09418 13.4815 8.09418 13.4815 8.09418 13.4815C8.09418 13.4815 8.09418 13.4815 8.09418 13.4815C8.09418 13.4815 8.09418 13.4815 8.09418 13.4815C8.09418 13.4815 8.09418 13.4815 8.09418 13.4815C8.09418 13.4815 8.09418 13.4815 8.09418 13.4815C8.09418 13.4815 8.09418 13.4815 8.09418 13.4815C8.09418 13.4815 8.09418 13.4815 8.09418 13.4815C8.09418 13.4815 8.09418 13.4815 8.09418 13.4815C8.09419 13.4815 8.09419 13.4815 8.09419 13.4815C8.09419 13.4815 8.09419 13.4815 8.09419 13.4815C8.09419 13.4815 8.09419 13.4815 8.09419 13.4815C8.09419 13.4815 8.09419 13.4815 8.09419 13.4815C8.09419 13.4815 8.09419 13.4815 8.09419 13.4815C8.09419 13.4815 8.09419 13.4815 8.09419 13.4815C8.09419 13.4815 8.09419 13.4815 8.09419 13.4815C8.09419 13.4815 8.09419 13.4815 8.09419 13.4815C8.09419 13.4815 8.09419 13.4815 8.0942 13.4815C8.0942 13.4815 8.0942 13.4815 8.0942 13.4815C8.0942 13.4815 8.0942 13.4815 8.0942 13.4815C8.0942 13.4815 8.0942 13.4815 8.0942 13.4815C8.0942 13.4815 8.0942 13.4815 8.0942 13.4815C8.0942 13.4815 8.0942 13.4815 8.0942 13.4815C8.0942 13.4815 8.0942 13.4815 8.0942 13.4815C8.0942 13.4815 8.0942 13.4815 8.0942 13.4815C8.0942 13.4815 8.0942 13.4815 8.0942 13.4815C8.0942 13.4815 8.09421 13.4815 8.09421 13.4815C8.09421 13.4815 8.09421 13.4815 8.09421 13.4815C8.09421 13.4815 8.09421 13.4815 8.09421 13.4815C8.09421 13.4815 8.09421 13.4815 8.09421 13.4815C8.09421 13.4815 8.09421 13.4815 8.09421 13.4815C8.09421 13.4815 8.09421 13.4815 8.09421 13.4815C8.09421 13.4815 8.09421 13.4815 8.09421 13.4815C8.09421 13.4815 8.09421 13.4815 8.09421 13.4815C8.09421 13.4815 8.09421 13.4815 8.09421 13.4815C8.09422 13.4815 8.09422 13.4815 8.09422 13.4815C8.09422 13.4815 8.09422 13.4815 8.09422 13.4815C8.09422 13.4815 8.09422 13.4815 8.09422 13.4815C8.09422 13.4815 8.09422 13.4815 8.09422 13.4815C8.09422 13.4815 8.09422 13.4815 8.09422 13.4815C8.09422 13.4815 8.09422 13.4815 8.09422 13.4815C8.09422 13.4815 8.09422 13.4815 8.09422 13.4815C8.09422 13.4815 8.09422 13.4815 8.09422 13.4815C8.09422 13.4815 8.09422 13.4815 8.09423 13.4815C8.09423 13.4815 8.09423 13.4815 8.09423 13.4815C8.09423 13.4815 8.09423 13.4815 8.09423 13.4815C8.09423 13.4815 8.09423 13.4815 8.09423 13.4815C8.09423 13.4815 8.09423 13.4815 8.09423 13.4815C8.09423 13.4815 8.09423 13.4815 8.09423 13.4815C8.09423 13.4815 8.09423 13.4815 8.09423 13.4815C8.09423 13.4815 8.09423 13.4815 8.09423 13.4815C8.09423 13.4815 8.09423 13.4815 8.09423 13.4815C8.09423 13.4815 8.09424 13.4815 8.09424 13.4815C8.09424 13.4815 8.09424 13.4815 8.09424 13.4815C8.09424 13.4815 8.09424 13.4815 8.09424 13.4815C8.09424 13.4815 8.09424 13.4815 8.09424 13.4815C8.09424 13.4815 8.09424 13.4815 8.09424 13.4815C8.09424 13.4815 8.09424 13.4815 8.09424 13.4815C8.09424 13.4815 8.09424 13.4815 8.09424 13.4815C8.09424 13.4815 8.09424 13.4815 8.09424 13.4815C8.09424 13.4815 8.09424 13.4815 8.09424 13.4815C8.09425 13.4815 8.09425 13.4815 8.09425 13.4815C8.09425 13.4815 8.09425 13.4815 8.09425 13.4815C8.09425 13.4815 8.09425 13.4815 8.09425 13.4815C8.09425 13.4815 8.09425 13.4815 8.09425 13.4815C8.09425 13.4815 8.09425 13.4815 8.09425 13.4815C8.09425 13.4815 8.09425 13.4815 8.09425 13.4815C8.09425 13.4815 8.09425 13.4815 8.09425 13.4815C8.09425 13.4815 8.09425 13.4815 8.09425 13.4815C8.09425 13.4815 8.09425 13.4815 8.09426 13.4815C8.09426 13.4815 8.09426 13.4815 8.09426 13.4815C8.09426 13.4815 8.09426 13.4815 8.09426 13.4815C8.09426 13.4815 8.09426 13.4815 8.09426 13.4815C8.09426 13.4815 8.09426 13.4815 8.09426 13.4815C8.09426 13.4815 8.09426 13.4815 8.09426 13.4815C8.09426 13.4815 8.09426 13.4815 8.09426 13.4815C8.09426 13.4815 8.09426 13.4815 8.09426 13.4815C8.09426 13.4815 8.09426 13.4815 8.09426 13.4815C8.09427 13.4815 8.09427 13.4815 8.09427 13.4815C8.09427 13.4815 8.09427 13.4815 8.09427 13.4815C8.09427 13.4815 8.09427 13.4815 8.09427 13.4815C8.09427 13.4815 8.09427 13.4815 8.09427 13.4815C8.09427 13.4815 8.09427 13.4815 8.09427 13.4815C8.09427 13.4815 8.09427 13.4815 8.09427 13.4815C8.09427 13.4815 8.09427 13.4815 8.09427 13.4815C8.09427 13.4815 8.09427 13.4815 8.09427 13.4815C8.09427 13.4815 8.09427 13.4815 8.09428 13.4815C8.09428 13.4815 8.09428 13.4815 8.09428 13.4815C8.09428 13.4815 8.09428 13.4815 8.09428 13.4815C8.09428 13.4815 8.09428 13.4815 8.09428 13.4815C8.09428 13.4815 8.09428 13.4815 8.09428 13.4815C8.09428 13.4815 8.09428 13.4815 8.09428 13.4815C8.09428 13.4815 8.09428 13.4815 8.09428 13.4815C8.09428 13.4815 8.09428 13.4815 8.09428 13.4815C8.09428 13.4815 8.09428 13.4815 8.09428 13.4815C8.09429 13.4815 8.09429 13.4815 8.09429 13.4815C8.09429 13.4815 8.09429 13.4815 8.09429 13.4815C8.09429 13.4815 8.09429 13.4815 8.09429 13.4815C8.09429 13.4815 8.09429 13.4815 8.09429 13.4815C8.09429 13.4815 8.09429 13.4815 8.09429 13.4815C8.09429 13.4815 8.09429 13.4815 8.09429 13.4815C8.09429 13.4815 8.09429 13.4815 8.09429 13.4815C8.09429 13.4815 8.09429 13.4815 8.09429 13.4815C8.09429 13.4815 8.09429 13.4815 8.0943 13.4815C8.0943 13.4815 8.0943 13.4815 8.0943 13.4815C8.0943 13.4815 8.0943 13.4815 8.0943 13.4815C8.0943 13.4815 8.0943 13.4815 8.0943 13.4815C8.0943 13.4815 8.0943 13.4815 8.0943 13.4815C8.0943 13.4815 8.0943 13.4815 8.0943 13.4815C8.0943 13.4815 8.0943 13.4815 8.0943 13.4815C8.0943 13.4815 8.0943 13.4815 8.0943 13.4815C8.0943 13.4815 8.0943 13.4815 8.0943 13.4815C8.0943 13.4815 8.09431 13.4815 8.09431 13.4815C8.09431 13.4815 8.09431 13.4815 8.09431 13.4815C8.09431 13.4815 8.09431 13.4815 8.09431 13.4815C8.09431 13.4815 8.09431 13.4815 8.09431 13.4815C8.09431 13.4815 8.09431 13.4815 8.09431 13.4815C8.09431 13.4815 8.09431 13.4815 8.09431 13.4815C8.09431 13.4815 8.09431 13.4815 8.09431 13.4815C8.09431 13.4815 8.09431 13.4815 8.09431 13.4815C8.09431 13.4815 8.09431 13.4815 8.09431 13.4815C8.09432 13.4815 8.09432 13.4815 8.09432 13.4815C8.09432 13.4815 8.09432 13.4815 8.09432 13.4815C8.09432 13.4815 8.09432 13.4815 8.09432 13.4815C8.09432 13.4815 8.09432 13.4815 8.09432 13.4815C8.09432 13.4815 8.09432 13.4815 8.09432 13.4815C8.09432 13.4815 8.09432 13.4815 8.09432 13.4815C8.09432 13.4815 8.09432 13.4815 8.09432 13.4815C8.09432 13.4815 8.09432 13.4815 8.09432 13.4815C8.09432 13.4815 8.09432 13.4815 8.09433 13.4815C8.09433 13.4815 8.09433 13.4815 8.09433 13.4815C8.09433 13.4815 8.09433 13.4815 8.09433 13.4815C8.09433 13.4815 8.09433 13.4815 8.09433 13.4815C8.09433 13.4815 8.09433 13.4815 8.09433 13.4815C8.09433 13.4815 8.09433 13.4815 8.09433 13.4815C8.09433 13.4815 8.09433 13.4815 8.09433 13.4815C8.09433 13.4815 8.09433 13.4815 8.09433 13.4815C8.09433 13.4815 8.09433 13.4815 8.09433 13.4815C8.09433 13.4815 8.09434 13.4815 8.09434 13.4815C8.09434 13.4815 8.09434 13.4815 8.09434 13.4815C8.09434 13.4815 8.09434 13.4815 8.09434 13.4815C8.09434 13.4815 8.09434 13.4815 8.09434 13.4815C8.09434 13.4815 8.09434 13.4815 8.09434 13.4815C8.09434 13.4815 8.09434 13.4815 8.09434 13.4815C8.09434 13.4815 8.09434 13.4815 8.09434 13.4815C8.09434 13.4815 8.09434 13.4815 8.09434 13.4815C8.09434 13.4815 8.09434 13.4815 8.09434 13.4815C8.09435 13.4815 8.09435 13.4815 8.09435 13.4815C8.09435 13.4815 8.09435 13.4815 8.09435 13.4815C8.09435 13.4815 8.09435 13.4815 8.09435 13.4815C8.09435 13.4815 8.09435 13.4815 8.09435 13.4815C8.09435 13.4815 8.09435 13.4815 8.09435 13.4815C8.09435 13.4815 8.09435 13.4815 8.09435 13.4815C8.09435 13.4815 8.09435 13.4815 8.09435 13.4815C8.09435 13.4815 8.09435 13.4815 8.09435 13.4815C8.09435 13.4815 8.09436 13.4815 8.09436 13.4815C8.09436 13.4815 8.09436 13.4815 8.09436 13.4815C8.09436 13.4815 8.09436 13.4815 8.09436 13.4815C8.09436 13.4815 8.09436 13.4815 8.09436 13.4815C8.09436 13.4815 8.09436 13.4815 8.09436 13.4815C8.09436 13.4815 8.09436 13.4815 8.09436 13.4815C8.09436 13.4815 8.09436 13.4815 8.09436 13.4815C8.09436 13.4815 8.09436 13.4815 8.09436 13.4815C8.09436 13.4815 8.09436 13.4815 8.09436 13.4815C8.09437 13.4815 8.09437 13.4815 8.09437 13.4815C8.09437 13.4815 8.09437 13.4815 8.09437 13.4815C8.09437 13.4815 8.09437 13.4815 8.09437 13.4815C8.09437 13.4815 8.09437 13.4815 8.09437 13.4815C8.09437 13.4815 8.09437 13.4815 8.09437 13.4815C8.09437 13.4815 8.09437 13.4815 8.09437 13.4815C8.09437 13.4815 8.09437 13.4815 8.09437 13.4815C8.09437 13.4815 8.09437 13.4815 8.09437 13.4815C8.09437 13.4815 8.09437 13.4815 8.09438 13.4815C8.09438 13.4815 8.09438 13.4815 8.09438 13.4815C8.09438 13.4815 8.09438 13.4815 8.09438 13.4815C8.09438 13.4815 8.09438 13.4815 8.09438 13.4815C8.09438 13.4815 8.09438 13.4815 8.09438 13.4815C8.09438 13.4815 8.09438 13.4815 8.09438 13.4815L8.36358 12.5184ZM7.72898 12.9996V13H8.72898V12.9996H7.72898ZM8.36333 13.4813C10.1047 12.9955 11.9864 11.8203 13.4343 10.3243C14.8765 8.83416 15.9568 6.95271 15.9568 5.03053H14.9568C14.9568 6.58884 14.066 8.23367 12.7157 9.62884C11.3711 11.0181 9.63892 12.0872 8.09463 12.518L8.36333 13.4813ZM15.9568 5.03053C15.9568 4.03561 15.6909 2.91594 15.0375 2.0312C14.3694 1.12655 13.3173 0.5 11.8423 0.5V1.5C12.996 1.5 13.7511 1.97268 14.2331 2.62528C14.7298 3.29779 14.9568 4.19339 14.9568 5.03053H15.9568ZM11.8423 0.5C10.3271 0.5 9.31002 1.28574 8.67802 2.22856C8.05808 3.15341 7.79133 4.24663 7.73011 4.98185L8.72666 5.06483C8.77751 4.45417 9.00569 3.53572 9.50867 2.78536C9.9996 2.05299 10.7334 1.5 11.8423 1.5V0.5Z" fill="#FF0000"/>
</svg>
