<svg width="28" height="17" viewBox="0 0 28 17" fill="none" xmlns="http://www.w3.org/2000/svg">
<path d="M26.5222 14H1.47778C0.661624 14 0 14.638 0 15.425V15.575C0 16.362 0.661624 17 1.47778 17H26.5222C27.3384 17 28 16.362 28 15.575V15.425C28 14.638 27.3384 14 26.5222 14Z" fill="#B2B2B2"/>
<path d="M26.5222 0H1.47778C0.661624 0 0 0.637994 0 1.425V1.575C0 2.36201 0.661624 3 1.47778 3H26.5222C27.3384 3 28 2.36201 28 1.575V1.425C28 0.637994 27.3384 0 26.5222 0Z" fill="#B2B2B2"/>
<path d="M26.5222 7H1.47778C0.661624 7 0 7.63799 0 8.425V8.575C0 9.36201 0.661624 10 1.47778 10H26.5222C27.3384 10 28 9.36201 28 8.575V8.425C28 7.63799 27.3384 7 26.5222 7Z" fill="#B2B2B2"/>
</svg>
