<svg width="25" height="25" viewBox="0 0 25 25" fill="none" xmlns="http://www.w3.org/2000/svg">
<path d="M1.96439 4.2802e-05C1.93968 -0.000219854 1.91506 0.000778276 1.8904 0.00161878C1.85748 0.00284451 1.82461 0.00505079 1.79179 0.00823769C1.39906 0.0460602 1.01968 0.226137 0.618535 0.592648C0.0934335 1.07215 -0.0579178 1.52035 0.0186518 2.04871C0.0951688 2.57697 0.457928 3.2168 1.12959 3.88237C1.28184 4.03324 1.45175 4.18374 1.63408 4.33545C1.70087 4.39087 1.76897 4.44734 1.83955 4.50282C1.89931 4.54997 1.95958 4.59648 2.02035 4.64234C2.03255 4.65153 2.04422 4.66114 2.05653 4.67029C2.90558 5.30266 4.00195 5.92778 5.30048 6.50247C13.7002 14.9763 20.489 22.1333 25 25C22.3122 20.5021 15.1431 13.7257 6.59385 5.27287C6.05587 4.02252 5.48344 2.97673 4.90606 2.15871C6.77087 1.62342 9.24555 2.0382 11.5191 4.30934C13.6355 6.42331 14.2875 9.07792 13.695 11.0514C13.9522 11.3095 14.2147 11.5721 14.4674 11.8262C15.4703 9.40451 14.7079 6.10581 12.2143 3.61488C10.3372 1.73988 8.24488 0.971294 6.37524 0.976757C6.31492 0.97702 6.25429 0.978333 6.19444 0.980119C5.04569 1.01426 3.98796 1.34248 3.12619 1.88297C2.9755 1.97748 2.82961 2.07941 2.68907 2.18839C2.75901 2.35092 2.83411 2.49749 2.92078 2.62009C3.02175 2.76298 3.13134 2.87939 3.28395 2.97142C3.39976 2.88123 3.5205 2.79413 3.64882 2.7137C3.70504 2.678 3.76203 2.64349 3.81973 2.61022C4.25075 3.14015 4.63302 3.90375 5.15917 5.09232C3.90193 4.53717 3.11756 4.14466 2.58058 3.67398C2.58184 3.6724 2.58268 3.67067 2.58394 3.66909C2.56117 3.65176 2.53835 3.63468 2.51663 3.61656C2.516 3.6161 2.51542 3.61558 2.51489 3.61498C1.92511 3.06997 1.64549 2.41023 1.34163 1.27734C1.65654 1.36165 1.93357 1.44492 2.18306 1.5318C2.61975 1.20117 3.09278 0.921385 3.59297 0.697869C3.09337 0.291381 2.61734 0.0711702 2.18958 0.0165377C2.11369 0.0068194 2.03865 0.000725709 1.96439 4.2802e-05ZM24.9178 2.41312C20.8166 2.41312 18.3133 3.93054 17.2332 6.05911C16.1532 8.18768 16.4973 10.8074 17.7427 12.9621C18.3414 13.998 18.6792 15.0994 18.7517 16.1781C19.0766 16.513 19.4003 16.849 19.7231 17.186C19.8445 15.6124 19.4563 13.9632 18.594 12.4713C17.4828 10.5485 17.2185 8.2629 18.1109 6.50405C19.0033 4.74519 21.0527 3.39482 24.9179 3.39482V2.41323L24.9178 2.41312ZM0.970145 5.06931C0.817952 6.32612 1.29514 7.70691 2.5232 8.93362L3.21832 8.24084C2.37848 7.40191 1.99889 6.56861 1.93321 5.79325C1.5837 5.55633 1.26249 5.31511 0.970092 5.06926L0.970145 5.06931ZM5.50095 13.5826C4.21431 13.5812 3.13234 13.8411 2.27498 14.3C0.968567 14.9992 0.204922 16.184 0.131981 17.4766C-0.0142163 20.0615 2.46588 22.8689 7.51574 23.69C12.8604 24.5591 16.4718 23.2075 18.3178 20.85C18.3709 20.7823 18.4224 20.7139 18.4724 20.6448C18.2331 20.4225 17.9914 20.1973 17.7476 19.9685C17.6828 20.0625 17.6151 20.155 17.5438 20.2459C15.9677 22.2586 12.7921 23.5538 7.67356 22.7215C2.91983 21.9485 1.00548 19.4368 1.11308 17.5323C1.16688 16.58 1.69061 15.7268 2.74008 15.1651C3.78949 14.6034 5.38357 14.358 7.49938 14.7727C9.29146 15.1241 10.8092 14.955 11.9924 14.4083C11.7442 14.1641 11.4934 13.9182 11.2415 13.6695C10.3188 14.0085 9.14368 14.0944 7.68834 13.809C6.90502 13.6555 6.17493 13.5833 5.50095 13.5825V13.5826Z" fill="white"/>
</svg>
