<svg width="17" height="23" viewBox="0 0 17 23" fill="none" xmlns="http://www.w3.org/2000/svg">
<path d="M16.5 8.38824C16.5 3.77166 12.979 0.5 8.61176 0.5C4.25521 0.5 0.72353 4.03168 0.72353 8.38824C0.72353 9.14147 0.977423 10.1002 1.42955 11.1935C1.87815 12.2783 2.50511 13.4561 3.21322 14.6357C4.62923 16.9944 6.34682 19.3223 7.54356 20.8657C8.09963 21.5829 9.14172 21.5883 9.70333 20.8783C10.902 19.3628 12.6133 17.0791 14.0226 14.7347C14.7272 13.5624 15.3507 12.3843 15.7967 11.2862C16.2455 10.1812 16.5 9.19221 16.5 8.38824Z" stroke="#4C6042"/>
<circle cx="4.5" cy="4.5" r="4" transform="matrix(-1 0 0 1 13 4)" stroke="#4C6042"/>
</svg>
