<svg width="25" height="25" viewBox="0 0 25 25" fill="none" xmlns="http://www.w3.org/2000/svg">
<path d="M2.7781 0.5H12V2.27778H2.77778H2.27778V2.77778V22.2222V22.7222H2.77778H12V24.5H2.77778C2.14743 24.5 1.62063 24.2816 1.17022 23.8312C0.719861 23.3808 0.50083 22.8534 0.5 22.2219V2.77778C0.5 2.1477 0.718677 1.621 1.16992 1.17052C1.62158 0.719632 2.14874 0.500829 2.7781 0.5ZM19.6875 13.3889H8.83333V11.6111H19.6875H20.8946L20.0411 10.7576L16.8437 7.56018L18.0651 6.27217L24.2929 12.5L18.0651 18.7278L16.8437 17.4398L20.0411 14.2424L20.8946 13.3889H19.6875Z" stroke="#4C6042"/>
</svg>
