<svg width="18" height="21" viewBox="0 0 18 21" fill="none" xmlns="http://www.w3.org/2000/svg">
<path d="M4.5 1.00055L4.5 2V2.5H4H2.00833L1.87784 2.50435C1.50412 2.53489 1.15524 2.70431 0.900123 2.97943C0.642805 3.25692 0.49988 3.62141 0.5 3.99984L0.5 4V15.9917L0.50435 16.1222C0.534885 16.4959 0.704315 16.8448 0.979431 17.0999C1.25692 17.3572 1.62141 17.5001 1.99984 17.5H2H15.9916L16.1222 17.4956C16.4959 17.4651 16.8448 17.2957 17.0999 17.0206C17.3572 16.7431 17.5001 16.3786 17.5 16.0002V16V4.00836L17.4956 3.87783C17.4651 3.50411 17.2957 3.15524 17.0206 2.90012C16.7431 2.6428 16.3786 2.49988 16.0002 2.5H16H14H13.5V2V1.01494L13.4949 0.929682C13.4783 0.812625 13.4207 0.705095 13.3321 0.626358C13.2406 0.544992 13.1224 0.500032 13 0.5L4.5 1.00055ZM4.5 1.00055C4.5 1.00044 4.5 1.00033 4.5 1.00022C4.50023 0.872902 4.54902 0.750458 4.63642 0.65787C4.72391 0.565202 4.84348 0.509437 4.9707 0.501969C5.09792 0.4945 5.22319 0.535892 5.32092 0.617687C5.41553 0.696881 5.47742 0.808161 5.49492 0.930012M4.5 1.00055L5.49492 0.930012M5.49492 0.930012L5.5 1.01494V2V2.5H6H12H12.5V2V1C12.5 0.867392 12.5527 0.740215 12.6464 0.646446C12.7402 0.552694 12.8673 0.500017 12.9999 0.5L5.49492 0.930012ZM16.5 9V8.5H16H2H1.5V9V16V16.5H2H16H16.5V16V9ZM16.5 4V3.5H16H2H1.5V4V7V7.5H2H16H16.5V7V4Z" stroke="black"/>
</svg>
