<svg width="20" height="19" viewBox="0 0 20 19" fill="none" xmlns="http://www.w3.org/2000/svg">
<path d="M13.641 12.7692V1L12.3769 1.65385L11.1128 1L9.85111 1.65385L8.57239 1L7.32053 1.65385L6.06473 1L4.80339 1.65385L3.52823 1L2.26374 1.65385L1.00003 1V10.1538" stroke="black" stroke-linejoin="round"/>
<path d="M0.999998 10.1537V14.7306C0.999998 15.5977 1.33623 16.4292 1.93473 17.0423C2.53323 17.6554 3.34497 17.9998 4.19138 17.9998M4.19138 17.9998C5.03779 17.9998 5.84953 17.6554 6.44803 17.0423C7.04653 16.4292 7.38276 15.5977 7.38276 14.7306V12.7691H18.2335C18.3175 12.7683 18.4008 12.7847 18.4786 12.8173C18.5564 12.8499 18.627 12.898 18.6865 12.9589C18.7459 13.0197 18.7929 13.0921 18.8247 13.1718C18.8565 13.2515 18.8725 13.3368 18.8717 13.4229C18.8717 16.0383 18.6029 17.9998 15.6804 17.9998H4.19138Z" stroke="black" stroke-linejoin="round"/>
<path d="M11.0257 4.92297H3.61542M8.55558 8.41015H3.61542" stroke="black" stroke-linecap="round" stroke-linejoin="round"/>
</svg>
