<svg width="295" height="101" viewBox="0 0 295 101" fill="none" xmlns="http://www.w3.org/2000/svg">
<path opacity="0.2" d="M1.91554 80.5777C5.7742 94.9784 23.4661 102.75 41.4316 97.9361C59.3971 93.1223 70.833 77.5459 66.9744 63.1452C64.8119 55.0747 56.8937 50.1841 49.2887 52.2219C41.6836 54.2596 37.2716 62.4541 39.4341 70.5246C43.2927 84.9253 60.9847 92.6969 78.9501 87.8831C96.9157 83.0692 108.352 67.4927 104.493 53.092C102.331 45.0215 94.4125 40.131 86.8072 42.1688C79.2022 44.2066 74.7902 52.401 76.9526 60.4715C80.8113 74.8723 98.5927 82.6199 116.668 77.7765C134.744 72.9332 146.27 57.3328 142.411 42.9321C140.248 34.8615 132.33 29.971 124.725 32.0088C117.119 34.0467 112.708 42.2409 114.871 50.3114C118.73 64.7121 136.421 72.4838 154.386 67.67C172.352 62.8561 183.787 47.2799 179.929 32.8792C177.766 24.8087 169.849 19.9178 162.244 21.9557C154.638 23.9935 150.226 32.188 152.389 40.2585C156.247 54.6593 173.94 62.4307 191.905 57.6168C209.871 52.803 221.306 37.2268 217.448 22.8261C215.285 14.7555 207.367 9.865 199.763 11.9025C192.157 13.9403 187.745 22.1349 189.908 30.2054C193.766 44.6061 211.459 52.3775 229.423 47.564C247.389 42.7501 258.825 27.1736 254.966 12.7729C252.804 4.70237 244.886 -0.188156 237.28 1.84967C229.676 3.88719 225.264 12.0817 227.426 20.1522C231.285 34.5529 249.066 42.3007 267.141 37.4574C285.217 32.6141 296.743 17.0136 292.884 2.61292" stroke="white" stroke-width="2" stroke-linecap="round"/>
</svg>
